<?xml version="1.0" encoding="utf-8"?>
<!-- Generator: Adobe Illustrator 27.5.0, SVG Export Plug-In . SVG Version: 6.00 Build 0)  -->
<svg version="1.1" id="Layer_1" xmlns="http://www.w3.org/2000/svg" xmlns:xlink="http://www.w3.org/1999/xlink" x="0px" y="0px"
	 viewBox="0 0 1080 1080" style="enable-background:new 0 0 1080 1080;" xml:space="preserve">
<style type="text/css">
	.st0{fill:#FEF7E4;}
</style>
<g>
	<path class="st0" d="M481.55,506.9c-16.99,16.13-35.46,28.35-55.39,36.67c-17.34,7.28-37.2,12.13-59.55,14.56
		c-15.61,1.73-37.37,2.6-65.27,2.6c16.3-5.9,32.46-11.75,48.5-17.55c16.04-5.81,29.35-11.5,39.92-17.04
		c13.52-6.94,27.47-15.78,41.86-26.52c13.52-9.89,23.41-17.69,29.65-23.41c8.32-7.63,16.47-17.08,24.45-28.34
		c12.83-18.21,21.67-33.98,26.52-47.33c5.54-15.26,8.32-33.03,8.32-53.31c0-13.69-0.78-24.49-2.34-32.37
		c-1.56-7.89-5.25-16.81-11.05-26.78c-5.81-9.97-12.01-18.11-18.59-24.45c-6.59-6.33-14.65-11.84-24.18-16.52v150.58l-7.02-9.36
		c-0.17,0-1.65-7.54-4.42-22.63c-3.47-18.55-6.25-37.18-8.32-55.92c-3.13-27.04-4.68-50.96-4.68-71.77
		c0-17.68,0.91-33.77,2.73-48.24c1.82-14.48,4.99-27.52,9.49-39.14c0.17,0,4.77,6.94,13.79,20.81
		c11.44,17.68,21.23,33.81,29.39,48.37c11.96,21.51,20.67,39.75,26.13,54.75c5.46,14.99,9.14,28.34,11.05,40.05
		s2.86,25.62,2.86,41.74c0,11.44-0.13,19.42-0.39,23.93c-0.26,4.51-1,11.53-2.21,21.06c0,22.36-4.42,41.96-13.26,58.78
		C512.06,474.31,499.4,489.91,481.55,506.9z"/>
</g>
<path class="st0" d="M524.58,653.56l15.21-31.03c1.22-2.43,2.43-3.65,3.65-3.65c2.02,0,10.65,5.17,25.86,15.52
	c15.21,10.34,22.82,16.33,22.82,17.95c0,6.49-6.69,20.48-20.08,41.98c-1.63,2.43-3.25,3.04-4.87,1.82
	c-13.39-9.74-28.2-19.88-44.42-30.42c-5.27,12.57-10.74,23.12-16.43,31.64c-1.22,2.83-2.83,3.65-4.87,2.43
	c-14.6-11.36-30.01-22.12-46.24-32.25c-0.81-0.41-0.81-1.63,0-3.65l19.47-38.33c1.22-2.43,2.43-3.65,3.65-3.65
	c1.63,0,8.82,4.26,21.6,12.78C512.72,643.22,520.93,649.51,524.58,653.56z"/>
<path class="st0" d="M917.4,443.54c-9.34-22.3-23.12-33.47-41.37-33.47c-14.6,0-29.82,7.91-45.64,23.73
	c-10.95,10.95-19.88,22.72-26.77,35.29c-3.65,0.41-7.91,6.09-12.78,17.04c-10.14,22.72-16.43,36.31-18.86,40.77
	c-8.52,15.42-23.33,27.79-44.42,37.12c-17.86,7.3-36.3,11.12-53.74,11.12c-25.16,0-47.76-9.02-67.85-27.08
	c-20.08-18.04-40.87-27.08-59.93-27.08c-50.71,0-108.11,38.33-174.63,113.78c-25.96,30.83-52.13,61.46-78.49,91.88
	c-31.24,32.45-57.41,48.68-78.49,48.68c-13.8,0-24.55-5.08-32.25-15.21c-7.3-9.34-10.95-21.91-10.95-37.73
	c0-19.87,6.48-47.46,19.47-82.75c12.98-35.29,19.47-55.77,19.47-61.46c0-1.62-0.41-2.43-1.22-2.43c-1.63,0-4.06,3.04-7.3,9.13
	c-30.02,58.82-45.03,106.48-45.03,142.99c0,26.36,7.7,48.88,23.12,67.54c14.6,17.44,31.84,26.16,51.72,26.16
	c17.44,0,34.88-7.91,52.33-23.73c11.76-10.15,29.41-29.82,52.94-59.02c26.77-33.26,48.47-58.41,65.11-75.45
	c53.94-55.16,102.42-82.75,145.43-82.75c11.35,0,22.91,4.46,34.68,13.39c19.06,15.82,30.21,24.54,33.47,26.16
	c16.22,9.33,35.69,13.99,58.41,13.99c23.52,0,46.83-9.49,68.34-29.37c20.69-19.06,36.51-43.4,47.46-73.02
	c36.51,27.99,73.02,41.99,109.52,41.99c7.3,0,13.79-7.09,19.47-21.3c6.48-15,9.74-32.45,9.74-52.33
	C928.36,479.44,924.71,460.58,917.4,443.54z M887.59,514.13c-1.63,0-3.86-0.4-6.69-1.22c-22.72-6.89-41.98-16.22-57.8-27.99
	c0-3.24,2.22-6.69,6.69-10.34c6.09-4.05,14.2-6.09,24.34-6.09c7.3,0,14.6,3.25,21.91,9.74c7.3,6.49,12.17,13.99,14.6,22.51
	c0.81,3.65,1.22,6.49,1.22,8.52C891.85,512.51,890.42,514.13,887.59,514.13z"/>
<path class="st0" d="M235.59,579.18c12.71,8.15,25.1,16.62,37.15,25.42c1.31,1.3,2.61,0.81,3.91-1.47
	c10.43-17.27,15.64-28.51,15.64-33.73c0-1.63-6.03-6.52-18.09-14.66c-12.05-8.14-18.9-12.22-20.53-12.22
	c-0.98,0-1.96,0.98-2.93,2.93l-15.15,31.29C234.94,578.05,234.94,578.86,235.59,579.18z"/>
<path class="st0" d="M222.39,639.31c13.04,8.14,25.42,16.78,37.15,25.91c1.63,0.98,2.93,0.32,3.91-1.95
	c4.57-6.84,8.97-15.32,13.2-25.42c13.03,8.47,24.93,16.62,35.68,24.44c1.3,0.98,2.61,0.49,3.91-1.47
	c10.75-17.28,16.13-28.52,16.13-33.73c0-1.63-6.11-6.52-18.33-14.66c-12.22-8.15-19.15-12.22-20.78-12.22
	c-0.98,0-1.96,0.98-2.93,2.93l-12.22,24.44c-2.93-2.93-9.53-7.82-19.8-14.66c-10.27-6.84-16.05-10.27-17.35-10.27
	c-0.98,0-1.95,0.98-2.93,2.93l-15.64,31.29C221.74,638.16,221.74,638.98,222.39,639.31z"/>
<g>
	<path class="st0" d="M175.24,845.24v3.3h-0.47c-2.36,0-3.93,0.79-3.93,3.14l0.16,41.58h5.58c7.31,0,14.7-2.83,17.84-9.43l0.08-0.31
		l3.14,0.08l-3.46,12.89h-37.81v-3.22h0.47c2.51,0,4.01-0.79,4.01-3.22v-38.36c0-2.36-1.49-3.14-4.01-3.14h-0.47v-3.3H175.24z"/>
	<path class="st0" d="M197.79,848.54v-3.3h37.96l3.38,16.35l-3.07,0.08l-0.08-0.31c-0.79-1.57-1.34-3.3-2.12-4.95
		c-2.52-5.19-6.13-7.86-12.18-7.86h-9.43v21.38c2.59,0,5.34,0,8.02-0.08c5.5-0.08,8.96-1.26,9.04-6.76v-0.47h3.22v16.58h-3.3v-0.47
		c0-5.19-4.01-5.34-8.96-5.42l-8.02-0.08v20.04h13.13c5.42,0,8.41-3.14,10.53-7.7c0.79-1.73,1.34-3.46,2.12-5.19l0.08-0.31
		l3.14,0.08l-3.46,16.35h-40.01v-3.22h0.47c2.51,0.08,4.01-0.79,4.01-3.22v-38.36c0-2.36-1.49-3.22-4.01-3.14H197.79z"/>
	<path class="st0" d="M242.04,871.97c0-15.88,9.04-27.51,26.49-27.51c5.11,0,10.93,1.02,14.93,4.56c0.08,0.08,0.47,0.39,0.86,0.71
		l0.55,0.55c0.08,0.08,0.08,0.16,0.16,0.24c0.08,0.16,0.16,0.24,0.16,0.31l1.26,10.45h-3.22l-0.08-0.31
		c-0.31-1.26-1.18-2.59-1.81-3.85c-2.91-4.79-7.39-9.27-13.36-9.27c-11.08,0-15.48,14.07-15.48,23.11
		c0,10.93,4.01,22.95,17.21,22.95c2.12,0,4.95-0.31,7.15-1.02v-13.83c0-2.28-1.81-3.14-4.24-3.07h-0.47v-3.3h19.18v3.3h-0.47
		c-2.44-0.08-4.01,0.86-4.01,3.14v11.79l-0.16,0.16c-5.03,4.87-11.63,6.52-18.55,6.52C251.32,897.59,242.04,887.69,242.04,871.97z"
		/>
	<path class="st0" d="M288.89,893.27c3.85-0.08,6.37-2.44,7.78-5.82l18.23-42.21h3.46l18.86,44.41c1.1,2.67,2.52,3.62,5.34,3.62
		h0.47v3.22h-20.75v-3.22h0.47c0.86,0,1.89-0.08,2.75-0.31c0.79-0.31,1.26-0.79,1.26-1.65c0-0.39-0.08-0.94-0.31-1.34l-5.42-12.81
		h-15.88l-4.4,10.61c-0.24,0.55-0.39,1.41-0.39,2.12c0,2.75,2.75,3.22,4.87,3.38h2.83v3.22h-19.65v-3.22H288.89z M319.62,873.85
		l-6.6-15.64l-6.6,15.64H319.62z"/>
	<path class="st0" d="M365.13,844.38c5.66,0,11.71,1.49,16.11,5.19c0.08,0.16,0.55,0.55,1.02,1.02l0.63,0.63
		c0.08,0.08,0.16,0.24,0.24,0.31c0.08,0.16,0.16,0.24,0.16,0.31c0.55,3.07,0.86,6.21,1.26,9.2l0.08,0.55h-3.22l-0.08-0.24
		c-3.54-6.68-8.17-13.6-16.66-13.6c-10.61,0-14.38,15.41-14.38,23.74c0,8.41,3.69,22.24,14.23,22.24c9.35,0,14.31-8.65,17.29-16.19
		l0.16-0.31h3.22l-0.08,0.55c-0.39,3.54-0.71,7.15-1.18,10.77c0,0.24-0.16,0.47-0.31,0.63c-0.16,0.24-0.31,0.47-0.55,0.71
		c-0.39,0.47-0.79,0.94-0.94,1.18c-4.4,4.4-11.48,6.37-17.61,6.37c-17.06,0-24.76-11.24-24.76-26.41
		C339.74,856.01,348.62,844.38,365.13,844.38z"/>
	<path class="st0" d="M385.25,845.24h23.58v3.3h-0.47c-0.71,0-2.04,0.08-3.22,0.47c-1.18,0.31-1.81,0.79-1.81,1.49
		c0,0.39,0.16,0.79,0.47,1.18l12.65,17.37l10.3-15.09c0.63-0.94,1.1-1.89,1.1-2.83c0-2.28-3.14-2.59-4.79-2.59h-0.47v-3.3h16.66v3.3
		h-0.47c-2.59,0-4.64,1.49-6.21,3.62l-14.23,19.73v18.16c0,2.44,1.49,3.22,4.01,3.22h0.47v3.22h-18.94v-3.22h0.47
		c2.52,0,4.01-0.79,4.01-3.22v-15.17l-16.43-22.72c-1.49-2.12-3.54-3.62-6.21-3.62h-0.47V845.24z"/>
	<path class="st0" d="M478.15,844.38c15.72,0,22.24,12.65,22.24,26.02c0,13.2-6.52,26.88-22.4,26.88s-22.16-13.52-22.16-26.64
		C455.83,857.19,462.27,844.38,478.15,844.38z M478.07,894.05c10.45,0,11.87-15.96,11.87-23.42c0-7.62-1.41-23.03-11.79-23.03
		c-10.53,0-11.87,15.41-11.87,23.11C466.28,878.18,467.7,894.05,478.07,894.05z"/>
	<path class="st0" d="M501.26,893.27h0.47c2.51,0,4.01-0.79,4.01-3.22v-38.36c0-2.36-1.49-3.14-4.01-3.14h-0.47v-3.3h38.12
		l3.38,16.35l-3.07,0.08l-0.08-0.31c-0.71-1.41-1.26-3.07-1.96-4.56c-2.12-4.87-5.11-8.25-10.77-8.25h-11.16v21.38l8.02-0.08
		c5.5-0.08,8.96-1.26,9.04-6.76v-0.47H536v16.58h-3.3v-0.47c0-5.19-4.01-5.42-8.96-5.42l-8.02-0.08v16.82
		c0,2.44,1.49,3.22,3.93,3.22h0.47v3.22h-18.86V893.27z"/>
	<path class="st0" d="M561.22,845.24h41.81l3.62,16.35l-3.14,0.08l-0.08-0.31c-3.22-6.84-8.49-12.58-16.74-12.81v41.5
		c0,2.36,1.57,3.3,4.01,3.22h0.47v3.22h-18.86v-3.22h0.47c2.36,0.08,3.93-0.86,3.93-3.22v-41.5c-7.78,0.24-12.73,6.37-15.72,12.81
		l-0.08,0.31l-3.14-0.08L561.22,845.24z"/>
	<path class="st0" d="M607.44,893.27c2.51,0,4.01-0.79,4.01-3.22v-38.36c0-2.36-1.49-3.14-4.01-3.14h-0.47v-3.3h0.47
		c6.13,0,12.34-0.08,18.47-0.08c3.46,0,7.31,0.08,10.77,0.94c6.29,1.73,9.9,6.84,9.9,12.97c0,7.31-4.87,11.71-11.24,13.13
		c7.47,1.26,12.42,5.42,18.16,10.77c2.99-0.24,6.21-3.38,7.23-5.97l13.05-31.75h3.14l13.99,33.95c0.71,1.81,1.65,3.69,3.62,3.62H695
		v3.22h-16.03v-3.22h0.47c1.18,0.08,1.81-0.24,1.81-1.1c0-0.79-0.55-2.59-1.26-4.4c-0.71-1.73-1.49-3.46-1.89-4.4h-11.63
		c-0.39,0.94-0.86,2.12-1.34,3.3c-0.55,1.34-0.86,2.59-0.86,3.46c0,2.28,1.73,3.14,4.01,3.14h0.47v3.22h-11.48
		c4.72,3.69,10.06,6.6,16.27,6.6c4.64,0,10.22-1.34,12.42-5.34l0.16-0.31l2.91,1.18l-0.24,0.39c-3.54,7.78-13.13,10.3-21.06,10.3
		c-9.59,0-17.06-4.09-23.5-10.53c-2.2-2.2-5.19-5.5-8.33-8.57c-3.07-2.99-6.37-5.58-9.35-6.29c-1.34-0.39-2.51-0.55-3.93-0.55
		c-0.39,0-0.79,0.08-1.18,0.08v17.06c0,2.36,0.79,3.3,3.14,3.22h0.47v3.22h-18.08v-3.22H607.44z M621.43,848.39v21.38
		c1.34,0,2.91,0,4.56-0.08c1.81-0.16,3.54-0.39,4.79-0.86c3.85-1.57,5.34-5.82,5.34-9.75c0-3.85-1.49-8.25-5.34-9.75
		c-1.26-0.47-2.99-0.71-4.79-0.86C624.34,848.39,622.77,848.39,621.43,848.39z M676.76,869.69l-4.56-11.16l-4.4,11.16H676.76z"/>
	<path class="st0" d="M694.21,848.54v-3.3h13.99c2.67,0,5.42-0.08,8.25,0c2.83,0.08,5.66,0.24,8.25,0.79
		c13.05,2.67,16.98,14.07,16.98,25.31s-4.48,22.56-17.53,24.52c-4.95,0.71-10.92,0.63-15.96,0.63h-13.99v-3.22h0.47
		c2.44,0.08,4.01-0.86,4.01-3.22v-38.36c0-2.28-1.57-3.22-4.01-3.14H694.21z M708.67,848.47v44.8c4.48,0,9.2-0.31,13.2-2.36
		c7.31-3.77,9.35-12.97,9.35-20.51c0-6.92-2.36-18.39-9.9-20.83C718.18,848.62,712.29,848.47,708.67,848.47z"/>
	<path class="st0" d="M761.57,845.24v3.3h-0.47c-2.44,0-3.93,0.79-3.93,3.14v38.36c0,2.44,1.49,3.22,3.93,3.22h0.47v3.22H742.7
		v-3.22h0.47c2.52,0,4.01-0.79,4.01-3.22v-38.36c0-2.36-1.49-3.14-4.01-3.14h-0.47v-3.3H761.57z"/>
	<path class="st0" d="M766.05,845.24h41.81l3.62,16.35l-3.14,0.08l-0.08-0.31c-3.22-6.84-8.49-12.58-16.74-12.81v41.5
		c0,2.36,1.57,3.3,4.01,3.22h0.47v3.22h-18.86v-3.22h0.47c2.36,0.08,3.93-0.86,3.93-3.22v-41.5c-7.78,0.24-12.73,6.37-15.72,12.81
		l-0.08,0.31l-3.14-0.08L766.05,845.24z"/>
	<path class="st0" d="M831.6,845.24v3.3h-0.47c-2.44,0-3.93,0.79-3.93,3.14v38.36c0,2.44,1.49,3.22,3.93,3.22h0.47v3.22h-18.86
		v-3.22h0.47c2.52,0,4.01-0.79,4.01-3.22v-38.36c0-2.36-1.49-3.14-4.01-3.14h-0.47v-3.3H831.6z"/>
	<path class="st0" d="M856.28,844.38c15.72,0,22.24,12.65,22.24,26.02c0,13.2-6.52,26.88-22.4,26.88
		c-15.88,0-22.16-13.52-22.16-26.64C833.96,857.19,840.4,844.38,856.28,844.38z M856.2,894.05c10.45,0,11.87-15.96,11.87-23.42
		c0-7.62-1.41-23.03-11.79-23.03c-10.53,0-11.87,15.41-11.87,23.11C844.41,878.18,845.82,894.05,856.2,894.05z"/>
	<path class="st0" d="M879.78,893.27h0.47c3.85,0,5.82-1.1,5.82-4.95v-37.49c-1.34-1.26-3.22-2.28-5.19-2.28h-0.47v-3.3h14.23
		l24.68,34.03V853.5c0-3.93-3.54-4.95-7.39-4.95h-0.47v-3.3h17.68v3.3h-0.47c-3.85,0-6.13,1.02-6.13,4.95v42.99h-2.99l-30.18-41.42
		v33.25c0,3.93,3.54,4.95,7.39,4.95h0.39v3.22h-17.37V893.27z"/>
</g>
</svg>
