<?xml version="1.0" encoding="utf-8"?>
<!-- Generator: Adobe Illustrator 27.5.0, SVG Export Plug-In . SVG Version: 6.00 Build 0)  -->
<svg version="1.1" id="Layer_1" xmlns="http://www.w3.org/2000/svg" xmlns:xlink="http://www.w3.org/1999/xlink" x="0px" y="0px"
	 viewBox="0 0 1080 1080" style="enable-background:new 0 0 1080 1080;" xml:space="preserve">
<style type="text/css">
	.st0{fill:#FF7402;}
</style>
<g>
	<g>
		<path class="st0" d="M503.77,522.87c-16.32,15.49-34.05,27.23-53.2,35.22c-16.65,6.99-35.72,11.65-57.2,13.99
			c-14.99,1.67-35.89,2.5-62.69,2.5c15.65-5.67,31.17-11.29,46.58-16.85c15.41-5.58,28.19-11.04,38.34-16.36
			c12.98-6.66,26.39-15.15,40.21-25.47c12.99-9.49,22.48-16.99,28.48-22.48c7.99-7.33,15.82-16.4,23.48-27.22
			c12.32-17.49,20.81-32.64,25.47-45.46c5.32-14.65,7.99-31.72,7.99-51.2c0-13.15-0.75-23.52-2.25-31.09
			c-1.5-7.58-5.04-16.15-10.62-25.72c-5.58-9.58-11.53-17.4-17.86-23.48s-14.07-11.37-23.23-15.87v144.62l-6.74-8.99
			c-0.16,0-1.58-7.24-4.25-21.73c-3.33-17.81-6-35.71-7.99-53.7c-3-25.97-4.5-48.94-4.5-68.93c0-16.98,0.87-32.43,2.62-46.33
			c1.75-13.9,4.79-26.43,9.12-37.59c0.16,0,4.58,6.66,13.24,19.99c10.99,16.98,20.39,32.47,28.22,46.45
			c11.49,20.65,19.85,38.18,25.1,52.58c5.24,14.4,8.78,27.22,10.61,38.46s2.75,24.6,2.75,40.09c0,10.99-0.13,18.65-0.38,22.98
			c-0.25,4.33-0.96,11.07-2.12,20.22c0,21.48-4.25,40.3-12.74,56.45C533.08,491.57,520.92,506.55,503.77,522.87z"/>
	</g>
	<path class="st0" d="M545.11,663.73l14.61-29.8c1.17-2.34,2.34-3.51,3.51-3.51c1.94,0,10.23,4.97,24.84,14.9
		c14.61,9.93,21.92,15.69,21.92,17.24c0,6.24-6.43,19.67-19.29,40.32c-1.56,2.34-3.12,2.92-4.67,1.75
		c-12.86-9.35-27.08-19.09-42.66-29.22c-5.06,12.07-10.32,22.21-15.78,30.39c-1.17,2.72-2.72,3.51-4.68,2.34
		c-14.03-10.91-28.83-21.24-44.41-30.97c-0.78-0.39-0.78-1.56,0-3.51l18.7-36.82c1.17-2.34,2.34-3.51,3.51-3.51
		c1.56,0,8.47,4.09,20.75,12.27C533.71,653.79,541.6,659.84,545.11,663.73z"/>
	<path class="st0" d="M922.38,462.02c-8.97-21.42-22.21-32.14-39.74-32.14c-14.03,0-28.64,7.6-43.83,22.79
		c-10.52,10.52-19.09,21.82-25.71,33.89c-3.51,0.39-7.6,5.84-12.27,16.36c-9.74,21.82-15.78,34.87-18.11,39.15
		c-8.18,14.81-22.41,26.69-42.66,35.65c-17.15,7.01-34.86,10.68-51.61,10.68c-24.16,0-45.87-8.67-65.16-26.01
		c-19.28-17.33-39.25-26.01-57.56-26.01c-48.7,0-103.83,36.82-167.72,109.28c-24.94,29.61-50.07,59.02-75.39,88.24
		c-30.01,31.16-55.13,46.75-75.39,46.75c-13.25,0-23.58-4.88-30.97-14.61c-7.01-8.97-10.52-21.04-10.52-36.23
		c0-19.08,6.23-45.58,18.7-79.48c12.46-33.89,18.7-53.56,18.7-59.02c0-1.55-0.39-2.34-1.17-2.34c-1.56,0-3.9,2.92-7.01,8.77
		c-28.84,56.49-43.25,102.27-43.25,137.33c0,25.32,7.4,46.94,22.21,64.87c14.03,16.75,30.58,25.13,49.67,25.13
		c16.75,0,33.5-7.6,50.26-22.79c11.29-9.74,28.24-28.64,50.84-56.69c25.71-31.94,46.55-56.1,62.53-72.46
		c51.81-52.98,98.37-79.48,139.67-79.48c10.9,0,22.01,4.28,33.31,12.86c18.31,15.19,29.02,23.57,32.14,25.13
		c15.58,8.96,34.28,13.44,56.1,13.44c22.59,0,44.98-9.12,65.64-28.21c19.87-18.31,35.06-41.68,45.58-70.13
		c35.06,26.88,70.13,40.32,105.19,40.32c7.01,0,13.24-6.81,18.7-20.45c6.23-14.41,9.35-31.16,9.35-50.26
		C932.9,496.5,929.39,478.38,922.38,462.02z M893.74,529.81c-1.56,0-3.71-0.38-6.43-1.17c-21.82-6.62-40.32-15.58-55.52-26.88
		c0-3.11,2.13-6.43,6.43-9.93c5.85-3.89,13.63-5.84,23.38-5.84c7.01,0,14.02,3.12,21.04,9.35c7.01,6.24,11.69,13.44,14.02,21.62
		c0.78,3.51,1.17,6.24,1.17,8.18C897.83,528.26,896.46,529.81,893.74,529.81z"/>
	<path class="st0" d="M267.55,592.29c12.21,7.83,24.1,15.96,35.68,24.41c1.25,1.25,2.51,0.78,3.75-1.41
		c10.01-16.59,15.02-27.38,15.02-32.39c0-1.56-5.79-6.26-17.37-14.08c-11.58-7.82-18.15-11.74-19.72-11.74
		c-0.94,0-1.88,0.94-2.82,2.82l-14.55,30.05C266.93,591.2,266.93,591.99,267.55,592.29z"/>
	<path class="st0" d="M254.87,650.04c12.52,7.82,24.41,16.12,35.68,24.88c1.57,0.94,2.82,0.31,3.75-1.88
		c4.39-6.57,8.61-14.72,12.68-24.41c12.51,8.14,23.95,15.96,34.27,23.47c1.25,0.94,2.5,0.47,3.76-1.41
		c10.33-16.59,15.49-27.39,15.49-32.39c0-1.57-5.87-6.26-17.6-14.08c-11.74-7.83-18.39-11.74-19.95-11.74
		c-0.94,0-1.88,0.94-2.82,2.82l-11.74,23.47c-2.82-2.82-9.16-7.51-19.01-14.08c-9.86-6.57-15.41-9.86-16.67-9.86
		c-0.94,0-1.88,0.94-2.82,2.82l-15.02,30.05C254.25,648.94,254.25,649.73,254.87,650.04z"/>
	<g>
		<path class="st0" d="M209.59,847.82v3.17h-0.45c-2.26,0-3.77,0.75-3.77,3.02l0.15,39.93h5.36c7.02,0,14.12-2.72,17.14-9.06
			l0.08-0.3l3.02,0.08l-3.32,12.38h-36.31v-3.09h0.45c2.42,0,3.85-0.75,3.85-3.1v-36.84c0-2.26-1.43-3.02-3.85-3.02h-0.45v-3.17
			H209.59z"/>
		<path class="st0" d="M231.25,850.99v-3.17h36.46l3.25,15.7l-2.94,0.08l-0.08-0.3c-0.75-1.51-1.28-3.17-2.04-4.76
			c-2.42-4.98-5.89-7.55-11.7-7.55h-9.06v20.53c2.49,0,5.13,0,7.7-0.08c5.28-0.08,8.61-1.21,8.68-6.49v-0.45h3.1v15.93h-3.17v-0.45
			c0-4.98-3.85-5.13-8.61-5.21l-7.7-0.08v19.25h12.61c5.21,0,8.08-3.02,10.12-7.4c0.75-1.66,1.28-3.32,2.04-4.98l0.08-0.3l3.02,0.08
			l-3.32,15.7h-38.42v-3.09h0.45c2.42,0.08,3.85-0.75,3.85-3.1v-36.84c0-2.26-1.43-3.1-3.85-3.02H231.25z"/>
		<path class="st0" d="M273.75,873.49c0-15.25,8.68-26.42,25.44-26.42c4.91,0,10.49,0.98,14.34,4.38c0.08,0.08,0.45,0.38,0.83,0.68
			l0.53,0.53c0.08,0.08,0.08,0.15,0.15,0.23c0.08,0.15,0.15,0.23,0.15,0.3l1.21,10.04h-3.1l-0.08-0.3c-0.3-1.21-1.13-2.49-1.74-3.7
			c-2.79-4.6-7.1-8.91-12.83-8.91c-10.64,0-14.87,13.51-14.87,22.19c0,10.49,3.85,22.04,16.53,22.04c2.04,0,4.76-0.3,6.87-0.98
			v-13.29c0-2.19-1.74-3.02-4.08-2.94h-0.45v-3.17h18.42v3.17h-0.45c-2.34-0.08-3.85,0.83-3.85,3.02v11.32l-0.15,0.15
			c-4.83,4.68-11.17,6.27-17.82,6.27C282.66,898.1,273.75,888.59,273.75,873.49z"/>
		<path class="st0" d="M318.74,893.95c3.7-0.08,6.11-2.34,7.47-5.59l17.51-40.54h3.32l18.12,42.65c1.06,2.57,2.42,3.47,5.13,3.47
			h0.45v3.09h-19.93v-3.09h0.45c0.83,0,1.81-0.08,2.64-0.3c0.76-0.3,1.21-0.76,1.21-1.59c0-0.38-0.08-0.91-0.3-1.28l-5.21-12.3
			h-15.25l-4.23,10.19c-0.23,0.53-0.38,1.36-0.38,2.04c0,2.64,2.64,3.1,4.68,3.25h2.72v3.09h-18.87v-3.09H318.74z M348.26,875.3
			l-6.34-15.02l-6.34,15.02H348.26z"/>
		<path class="st0" d="M391.96,846.99c5.44,0,11.25,1.43,15.48,4.98c0.08,0.15,0.53,0.53,0.98,0.98l0.6,0.6
			c0.08,0.08,0.15,0.23,0.23,0.3c0.08,0.15,0.15,0.23,0.15,0.3c0.53,2.94,0.83,5.96,1.21,8.83l0.08,0.53h-3.1l-0.08-0.23
			c-3.4-6.42-7.85-13.06-16-13.06c-10.19,0-13.81,14.8-13.81,22.8c0,8.08,3.55,21.36,13.66,21.36c8.98,0,13.74-8.3,16.61-15.55
			l0.15-0.3h3.1l-0.08,0.53c-0.38,3.4-0.68,6.87-1.13,10.34c0,0.23-0.15,0.45-0.3,0.6c-0.15,0.23-0.3,0.45-0.53,0.68
			c-0.38,0.45-0.75,0.91-0.91,1.13c-4.23,4.23-11.02,6.11-16.91,6.11c-16.38,0-23.78-10.79-23.78-25.36
			C367.58,858.16,376.11,846.99,391.96,846.99z"/>
		<path class="st0" d="M411.29,847.82h22.65v3.17h-0.45c-0.68,0-1.96,0.08-3.1,0.45c-1.13,0.3-1.74,0.75-1.74,1.43
			c0,0.38,0.15,0.75,0.45,1.13l12.15,16.68l9.89-14.49c0.6-0.91,1.06-1.81,1.06-2.72c0-2.19-3.02-2.49-4.6-2.49h-0.45v-3.17h16v3.17
			h-0.45c-2.49,0-4.45,1.43-5.96,3.47l-13.66,18.95v17.44c0,2.34,1.43,3.1,3.85,3.1h0.45v3.09h-18.19v-3.09h0.45
			c2.42,0,3.85-0.75,3.85-3.1v-14.57l-15.78-21.82c-1.43-2.04-3.4-3.47-5.96-3.47h-0.45V847.82z"/>
		<path class="st0" d="M500.51,846.99c15.1,0,21.36,12.15,21.36,24.99c0,12.68-6.27,25.82-21.51,25.82
			c-15.25,0-21.29-12.98-21.29-25.59C479.07,859.3,485.26,846.99,500.51,846.99z M500.43,894.7c10.04,0,11.4-15.32,11.4-22.5
			c0-7.32-1.36-22.12-11.32-22.12c-10.12,0-11.4,14.8-11.4,22.19C489.11,879.45,490.47,894.7,500.43,894.7z"/>
		<path class="st0" d="M522.7,893.95h0.45c2.42,0,3.85-0.75,3.85-3.1v-36.84c0-2.26-1.43-3.02-3.85-3.02h-0.45v-3.17h36.61
			l3.25,15.7l-2.94,0.08l-0.08-0.3c-0.68-1.36-1.21-2.94-1.89-4.38c-2.04-4.68-4.91-7.93-10.34-7.93h-10.72v20.53l7.7-0.08
			c5.28-0.08,8.61-1.21,8.68-6.49v-0.45h3.1v15.93h-3.17v-0.45c0-4.98-3.85-5.21-8.61-5.21l-7.7-0.08v16.15
			c0,2.34,1.43,3.1,3.77,3.1h0.45v3.09H522.7V893.95z"/>
		<path class="st0" d="M580.3,847.82h40.16l3.47,15.7l-3.02,0.08l-0.08-0.3c-3.1-6.57-8.15-12.08-16.08-12.3v39.86
			c0,2.26,1.51,3.17,3.85,3.1h0.45v3.09h-18.12v-3.09h0.45c2.26,0.08,3.77-0.83,3.77-3.1v-39.86c-7.47,0.23-12.23,6.11-15.1,12.3
			l-0.08,0.3l-3.02-0.08L580.3,847.82z"/>
		<path class="st0" d="M624.68,893.95c2.42,0,3.85-0.75,3.85-3.1v-36.84c0-2.26-1.43-3.02-3.85-3.02h-0.45v-3.17h0.45
			c5.89,0,11.85-0.08,17.74-0.08c3.32,0,7.02,0.08,10.34,0.91c6.04,1.66,9.51,6.57,9.51,12.46c0,7.02-4.68,11.25-10.79,12.61
			c7.17,1.21,11.93,5.21,17.44,10.34c2.87-0.23,5.96-3.25,6.94-5.74l12.53-30.5h3.02l13.44,32.61c0.68,1.74,1.59,3.55,3.47,3.47
			h0.45V887h-15.4v-3.09h0.45c1.13,0.08,1.74-0.23,1.74-1.06c0-0.75-0.53-2.49-1.21-4.23c-0.68-1.66-1.43-3.32-1.81-4.23h-11.17
			c-0.38,0.91-0.83,2.04-1.28,3.17c-0.53,1.28-0.83,2.49-0.83,3.32c0,2.19,1.66,3.02,3.85,3.02h0.45V887h-11.02
			c4.53,3.55,9.66,6.34,15.63,6.34c4.45,0,9.81-1.28,11.93-5.13l0.15-0.3l2.79,1.13l-0.23,0.38c-3.4,7.47-12.61,9.89-20.23,9.89
			c-9.21,0-16.38-3.93-22.57-10.12c-2.11-2.11-4.98-5.28-8-8.23c-2.94-2.87-6.11-5.36-8.98-6.04c-1.28-0.38-2.42-0.53-3.77-0.53
			c-0.38,0-0.76,0.08-1.13,0.08v16.38c0,2.26,0.75,3.17,3.02,3.1h0.45v3.09h-17.36v-3.09H624.68z M638.12,850.84v20.53
			c1.28,0,2.79,0,4.38-0.08c1.74-0.15,3.4-0.38,4.6-0.83c3.7-1.51,5.13-5.59,5.13-9.36c0-3.7-1.43-7.93-5.13-9.36
			c-1.21-0.45-2.87-0.68-4.6-0.83C640.91,850.84,639.4,850.84,638.12,850.84z M691.26,871.3l-4.38-10.72l-4.23,10.72H691.26z"/>
		<path class="st0" d="M708.02,850.99v-3.17h13.44c2.57,0,5.21-0.08,7.93,0c2.72,0.08,5.44,0.23,7.93,0.75
			c12.53,2.57,16.31,13.51,16.31,24.31c0,10.79-4.3,21.67-16.83,23.55c-4.76,0.68-10.49,0.6-15.32,0.6h-13.44v-3.09h0.45
			c2.34,0.08,3.85-0.83,3.85-3.1v-36.84c0-2.19-1.51-3.1-3.85-3.02H708.02z M721.91,850.92v43.03c4.3,0,8.83-0.3,12.68-2.26
			c7.02-3.62,8.98-12.46,8.98-19.7c0-6.64-2.26-17.66-9.51-20C731.04,851.07,725.38,850.92,721.91,850.92z"/>
		<path class="st0" d="M772.71,847.82v3.17h-0.45c-2.34,0-3.77,0.75-3.77,3.02v36.84c0,2.34,1.43,3.1,3.77,3.1h0.45v3.09h-18.12
			v-3.09h0.45c2.42,0,3.85-0.75,3.85-3.1v-36.84c0-2.26-1.43-3.02-3.85-3.02h-0.45v-3.17H772.71z"/>
		<path class="st0" d="M777.01,847.82h40.16l3.47,15.7l-3.02,0.08l-0.08-0.3c-3.1-6.57-8.15-12.08-16.08-12.3v39.86
			c0,2.26,1.51,3.17,3.85,3.1h0.45v3.09h-18.12v-3.09h0.45c2.26,0.08,3.77-0.83,3.77-3.1v-39.86c-7.47,0.23-12.23,6.11-15.1,12.3
			l-0.08,0.3l-3.02-0.08L777.01,847.82z"/>
		<path class="st0" d="M839.97,847.82v3.17h-0.45c-2.34,0-3.77,0.75-3.77,3.02v36.84c0,2.34,1.43,3.1,3.77,3.1h0.45v3.09h-18.12
			v-3.09h0.45c2.42,0,3.85-0.75,3.85-3.1v-36.84c0-2.26-1.43-3.02-3.85-3.02h-0.45v-3.17H839.97z"/>
		<path class="st0" d="M863.67,846.99c15.1,0,21.36,12.15,21.36,24.99c0,12.68-6.27,25.82-21.51,25.82
			c-15.25,0-21.29-12.98-21.29-25.59C842.23,859.3,848.42,846.99,863.67,846.99z M863.6,894.7c10.04,0,11.4-15.32,11.4-22.5
			c0-7.32-1.36-22.12-11.32-22.12c-10.12,0-11.4,14.8-11.4,22.19C852.27,879.45,853.63,894.7,863.6,894.7z"/>
		<path class="st0" d="M886.24,893.95h0.45c3.7,0,5.59-1.06,5.59-4.76v-36.01c-1.28-1.21-3.09-2.19-4.98-2.19h-0.45v-3.17h13.66
			l23.7,32.69v-24.76c0-3.77-3.4-4.76-7.1-4.76h-0.45v-3.17h16.98v3.17h-0.45c-3.7,0-5.89,0.98-5.89,4.76v41.29h-2.87l-28.99-39.78
			v31.93c0,3.77,3.4,4.76,7.1,4.76h0.38v3.09h-16.68V893.95z"/>
	</g>
</g>
</svg>
