<?xml version="1.0" encoding="utf-8"?>
<!-- Generator: Adobe Illustrator 27.5.0, SVG Export Plug-In . SVG Version: 6.00 Build 0)  -->
<svg version="1.1" id="Layer_1" xmlns="http://www.w3.org/2000/svg" xmlns:xlink="http://www.w3.org/1999/xlink" x="0px" y="0px"
	 viewBox="0 0 1080 1080" style="enable-background:new 0 0 1080 1080;" xml:space="preserve">
<style type="text/css">
	.st0{fill:#FF7402;}
	.st1{fill:#FEF7E4;}
</style>
<rect x="540" y="540" width="540" height="540"/>
<rect x="0.26" y="540" class="st0" width="540" height="540"/>
<rect x="0.26" y="-0.23" class="st1" width="1079.74" height="540"/>
<g>
	<path d="M507.69,260.32c-9.01,8.55-18.79,15.02-29.36,19.43c-9.19,3.86-19.71,6.43-31.56,7.72c-8.27,0.92-19.8,1.38-34.59,1.38
		c8.64-3.13,17.2-6.23,25.7-9.3c8.5-3.08,15.55-6.09,21.16-9.03c7.16-3.68,14.56-8.36,22.19-14.06c7.17-5.24,12.41-9.37,15.71-12.41
		c4.41-4.05,8.73-9.05,12.96-15.02c6.8-9.65,11.48-18.01,14.06-25.08c2.94-8.09,4.41-17.51,4.41-28.26c0-7.26-0.41-12.98-1.24-17.16
		c-0.83-4.18-2.78-8.91-5.86-14.2c-3.08-5.28-6.36-9.6-9.85-12.96c-3.49-3.36-7.76-6.27-12.82-8.76v79.8l-3.72-4.96
		c-0.09,0-0.87-4-2.34-11.99c-1.84-9.83-3.31-19.71-4.41-29.63c-1.66-14.33-2.48-27.01-2.48-38.04c0-9.37,0.48-17.9,1.45-25.57
		c0.96-7.67,2.64-14.59,5.03-20.74c0.09,0,2.53,3.68,7.31,11.03c6.06,9.37,11.25,17.92,15.57,25.63
		c6.34,11.4,10.95,21.07,13.85,29.01c2.89,7.95,4.85,15.02,5.85,21.22c1.01,6.2,1.52,13.58,1.52,22.12c0,6.06-0.07,10.29-0.21,12.68
		c-0.14,2.39-0.53,6.11-1.17,11.16c0,11.85-2.34,22.24-7.03,31.15C523.86,243.05,517.15,251.32,507.69,260.32z"/>
</g>
<path class="st0" d="M530.5,338.05l8.06-16.45c0.65-1.29,1.29-1.94,1.94-1.94c1.07,0,5.64,2.74,13.7,8.22
	c8.06,5.48,12.09,8.66,12.09,9.51c0,3.44-3.55,10.85-10.64,22.25c-0.86,1.29-1.72,1.61-2.58,0.97c-7.1-5.16-14.95-10.54-23.54-16.12
	c-2.79,6.66-5.69,12.25-8.71,16.77c-0.64,1.5-1.5,1.93-2.58,1.29c-7.74-6.02-15.91-11.72-24.51-17.09c-0.43-0.22-0.43-0.86,0-1.93
	l10.32-20.32c0.65-1.29,1.29-1.93,1.93-1.93c0.86,0,4.68,2.26,11.45,6.77C524.21,332.57,528.56,335.9,530.5,338.05z"/>
<path d="M738.69,226.74c-4.95-11.82-12.25-17.74-21.93-17.74c-7.74,0-15.8,4.19-24.19,12.58c-5.8,5.8-10.54,12.04-14.19,18.7
	c-1.94,0.22-4.19,3.23-6.77,9.03c-5.38,12.04-8.71,19.24-10,21.61c-4.51,8.17-12.37,14.73-23.54,19.67
	c-9.46,3.87-19.24,5.89-28.48,5.89c-13.33,0-25.31-4.78-35.96-14.35c-10.64-9.56-21.66-14.35-31.76-14.35
	c-26.88,0-57.3,20.32-92.55,60.3c-13.76,16.34-27.63,32.57-41.6,48.69c-16.56,17.2-30.42,25.8-41.6,25.8
	c-7.31,0-13.01-2.69-17.09-8.06c-3.87-4.95-5.8-11.61-5.8-19.99c0-10.53,3.44-25.15,10.32-43.86c6.88-18.7,10.32-29.56,10.32-32.57
	c0-0.86-0.22-1.29-0.65-1.29c-0.86,0-2.15,1.61-3.87,4.84c-15.91,31.17-23.86,56.43-23.86,75.78c0,13.97,4.08,25.9,12.25,35.8
	c7.74,9.24,16.87,13.87,27.41,13.87c9.24,0,18.49-4.19,27.73-12.58c6.23-5.38,15.58-15.8,28.06-31.28
	c14.19-17.63,25.69-30.96,34.51-39.99c28.59-29.24,54.28-43.86,77.07-43.86c6.02,0,12.14,2.36,18.38,7.09
	c10.1,8.38,16.01,13.01,17.74,13.87c8.6,4.94,18.92,7.42,30.96,7.42c12.47,0,24.82-5.03,36.22-15.57c10.96-10.1,19.35-23,25.15-38.7
	c19.35,14.83,38.7,22.25,58.05,22.25c3.87,0,7.31-3.76,10.32-11.29c3.44-7.95,5.16-17.2,5.16-27.73
	C744.49,245.77,742.56,235.77,738.69,226.74z M722.89,264.15c-0.86,0-2.05-0.21-3.55-0.65c-12.04-3.65-22.25-8.6-30.64-14.83
	c0-1.72,1.18-3.55,3.55-5.48c3.23-2.15,7.52-3.22,12.9-3.22c3.87,0,7.74,1.72,11.61,5.16c3.87,3.44,6.45,7.42,7.74,11.93
	c0.43,1.93,0.65,3.44,0.65,4.51C725.14,263.29,724.39,264.15,722.89,264.15z"/>
<path class="st0" d="M377.34,298.63c6.74,4.32,13.3,8.81,19.69,13.47c0.69,0.69,1.38,0.43,2.07-0.78
	c5.53-9.15,8.29-15.11,8.29-17.88c0-0.86-3.2-3.45-9.59-7.77c-6.39-4.32-10.01-6.48-10.88-6.48c-0.52,0-1.04,0.52-1.55,1.55
	l-8.03,16.58C376.99,298.03,376.99,298.46,377.34,298.63z"/>
<path class="st0" d="M370.34,330.5c6.91,4.32,13.47,8.89,19.69,13.73c0.87,0.52,1.55,0.17,2.07-1.04c2.42-3.63,4.75-8.12,7-13.47
	c6.91,4.49,13.21,8.81,18.91,12.95c0.69,0.52,1.38,0.26,2.07-0.78c5.7-9.16,8.55-15.11,8.55-17.88c0-0.87-3.24-3.46-9.71-7.77
	c-6.48-4.32-10.15-6.48-11.01-6.48c-0.52,0-1.04,0.52-1.55,1.55l-6.48,12.95c-1.55-1.55-5.05-4.15-10.49-7.77
	c-5.44-3.63-8.51-5.44-9.2-5.44c-0.52,0-1.04,0.52-1.55,1.55l-8.29,16.58C370,329.89,370,330.32,370.34,330.5z"/>
<path d="M345.35,439.64v1.75h-0.25c-1.25,0-2.08,0.42-2.08,1.67l0.08,22.04h2.96c3.87,0,7.79-1.5,9.46-5l0.04-0.17l1.67,0.04
	l-1.83,6.83h-20.04v-1.71h0.25c1.33,0,2.12-0.42,2.12-1.71v-20.33c0-1.25-0.79-1.67-2.12-1.67h-0.25v-1.75H345.35z"/>
<path d="M357.31,441.39v-1.75h20.12l1.79,8.66l-1.62,0.04l-0.04-0.17c-0.42-0.83-0.71-1.75-1.12-2.62
	c-1.33-2.75-3.25-4.17-6.46-4.17h-5v11.33c1.37,0,2.83,0,4.25-0.04c2.92-0.04,4.75-0.67,4.79-3.58v-0.25h1.71v8.79h-1.75v-0.25
	c0-2.75-2.12-2.83-4.75-2.87l-4.25-0.04v10.62h6.96c2.87,0,4.46-1.67,5.58-4.08c0.42-0.92,0.71-1.83,1.12-2.75l0.04-0.17l1.67,0.04
	l-1.83,8.66h-21.2v-1.71h0.25c1.33,0.04,2.12-0.42,2.12-1.71v-20.33c0-1.25-0.79-1.71-2.12-1.67H357.31z"/>
<path d="M380.76,453.8c0-8.41,4.79-14.58,14.04-14.58c2.71,0,5.79,0.54,7.91,2.42c0.04,0.04,0.25,0.21,0.46,0.37l0.29,0.29
	c0.04,0.04,0.04,0.08,0.08,0.12c0.04,0.08,0.08,0.12,0.08,0.17l0.67,5.54h-1.71l-0.04-0.17c-0.17-0.67-0.62-1.37-0.96-2.04
	c-1.54-2.54-3.92-4.92-7.08-4.92c-5.87,0-8.21,7.46-8.21,12.25c0,5.79,2.12,12.16,9.12,12.16c1.12,0,2.62-0.17,3.79-0.54v-7.33
	c0-1.21-0.96-1.67-2.25-1.62h-0.25v-1.75h10.16v1.75h-0.25c-1.29-0.04-2.12,0.46-2.12,1.67v6.25l-0.08,0.08
	c-2.67,2.58-6.17,3.46-9.83,3.46C385.67,467.38,380.76,462.13,380.76,453.8z"/>
<path d="M405.58,465.09c2.04-0.04,3.37-1.29,4.12-3.08l9.66-22.37h1.83l10,23.54c0.58,1.42,1.33,1.92,2.83,1.92h0.25v1.71h-11v-1.71
	h0.25c0.46,0,1-0.04,1.46-0.17c0.42-0.17,0.67-0.42,0.67-0.87c0-0.21-0.04-0.5-0.17-0.71l-2.87-6.79h-8.41l-2.33,5.62
	c-0.12,0.29-0.21,0.75-0.21,1.12c0,1.46,1.46,1.71,2.58,1.79h1.5v1.71h-10.41v-1.71H405.58z M421.87,454.8l-3.5-8.29l-3.5,8.29
	H421.87z"/>
<path d="M445.99,439.18c3,0,6.21,0.79,8.54,2.75c0.04,0.08,0.29,0.29,0.54,0.54l0.33,0.33c0.04,0.04,0.08,0.12,0.12,0.17
	c0.04,0.08,0.08,0.12,0.08,0.17c0.29,1.62,0.46,3.29,0.67,4.87l0.04,0.29h-1.71l-0.04-0.12c-1.87-3.54-4.33-7.21-8.83-7.21
	c-5.62,0-7.62,8.16-7.62,12.58c0,4.46,1.96,11.79,7.54,11.79c4.96,0,7.58-4.58,9.16-8.58l0.08-0.17h1.71l-0.04,0.29
	c-0.21,1.87-0.38,3.79-0.62,5.71c0,0.12-0.08,0.25-0.17,0.33c-0.08,0.13-0.17,0.25-0.29,0.38c-0.21,0.25-0.42,0.5-0.5,0.62
	c-2.33,2.33-6.08,3.37-9.33,3.37c-9.04,0-13.12-5.96-13.12-14C432.53,445.35,437.24,439.18,445.99,439.18z"/>
<path d="M456.65,439.64h12.5v1.75h-0.25c-0.37,0-1.08,0.04-1.71,0.25c-0.62,0.17-0.96,0.42-0.96,0.79c0,0.21,0.08,0.42,0.25,0.62
	l6.71,9.21l5.46-8c0.33-0.5,0.58-1,0.58-1.5c0-1.21-1.67-1.37-2.54-1.37h-0.25v-1.75h8.83v1.75h-0.25c-1.37,0-2.46,0.79-3.29,1.92
	l-7.54,10.46v9.62c0,1.29,0.79,1.71,2.12,1.71h0.25v1.71h-10.04v-1.71h0.25c1.33,0,2.12-0.42,2.12-1.71v-8.04l-8.71-12.04
	c-0.79-1.12-1.87-1.92-3.29-1.92h-0.25V439.64z"/>
<path d="M505.89,439.18c8.33,0,11.79,6.71,11.79,13.79c0,7-3.46,14.25-11.87,14.25c-8.41,0-11.75-7.16-11.75-14.12
	C494.06,445.97,497.47,439.18,505.89,439.18z M505.85,465.51c5.54,0,6.29-8.46,6.29-12.41c0-4.04-0.75-12.21-6.25-12.21
	c-5.58,0-6.29,8.16-6.29,12.25C499.6,457.09,500.35,465.51,505.85,465.51z"/>
<path d="M518.13,465.09h0.25c1.33,0,2.12-0.42,2.12-1.71v-20.33c0-1.25-0.79-1.67-2.12-1.67h-0.25v-1.75h20.2l1.79,8.66l-1.62,0.04
	l-0.04-0.17c-0.37-0.75-0.67-1.62-1.04-2.42c-1.12-2.58-2.71-4.37-5.71-4.37h-5.92v11.33l4.25-0.04c2.92-0.04,4.75-0.67,4.79-3.58
	v-0.25h1.71v8.79h-1.75v-0.25c0-2.75-2.12-2.87-4.75-2.87l-4.25-0.04v8.91c0,1.29,0.79,1.71,2.08,1.71h0.25v1.71h-10V465.09z"/>
<path class="st0" d="M549.92,439.64h22.16l1.92,8.66l-1.67,0.04l-0.04-0.17c-1.71-3.62-4.5-6.67-8.87-6.79v21.99
	c0,1.25,0.83,1.75,2.12,1.71h0.25v1.71h-10v-1.71h0.25c1.25,0.04,2.08-0.46,2.08-1.71v-21.99c-4.12,0.12-6.75,3.37-8.33,6.79
	l-0.04,0.17l-1.67-0.04L549.92,439.64z"/>
<path class="st0" d="M574.41,465.09c1.33,0,2.12-0.42,2.12-1.71v-20.33c0-1.25-0.79-1.67-2.12-1.67h-0.25v-1.75h0.25
	c3.25,0,6.54-0.04,9.79-0.04c1.83,0,3.87,0.04,5.71,0.5c3.33,0.92,5.25,3.62,5.25,6.87c0,3.87-2.58,6.21-5.96,6.96
	c3.96,0.67,6.58,2.87,9.62,5.71c1.58-0.12,3.29-1.79,3.83-3.17l6.91-16.83h1.67l7.41,18c0.38,0.96,0.87,1.96,1.92,1.92h0.25v1.71
	h-8.5v-1.71h0.25c0.62,0.04,0.96-0.12,0.96-0.58c0-0.42-0.29-1.37-0.67-2.33c-0.37-0.92-0.79-1.83-1-2.33h-6.17
	c-0.21,0.5-0.46,1.12-0.71,1.75c-0.29,0.71-0.46,1.37-0.46,1.83c0,1.21,0.92,1.67,2.12,1.67h0.25v1.71h-6.08
	c2.5,1.96,5.33,3.5,8.62,3.5c2.46,0,5.42-0.71,6.58-2.83l0.08-0.17l1.54,0.62l-0.12,0.21c-1.87,4.12-6.96,5.46-11.16,5.46
	c-5.08,0-9.04-2.17-12.46-5.58c-1.17-1.17-2.75-2.92-4.42-4.54c-1.62-1.58-3.37-2.96-4.96-3.33c-0.71-0.21-1.33-0.29-2.08-0.29
	c-0.21,0-0.42,0.04-0.63,0.04v9.04c0,1.25,0.42,1.75,1.67,1.71h0.25v1.71h-9.58v-1.71H574.41z M581.83,441.3v11.33
	c0.71,0,1.54,0,2.42-0.04c0.96-0.08,1.87-0.21,2.54-0.46c2.04-0.83,2.83-3.08,2.83-5.17c0-2.04-0.79-4.37-2.83-5.17
	c-0.67-0.25-1.58-0.37-2.54-0.46C583.37,441.3,582.53,441.3,581.83,441.3z M611.15,452.59l-2.42-5.92l-2.33,5.92H611.15z"/>
<path class="st0" d="M620.4,441.39v-1.75h7.41c1.42,0,2.87-0.04,4.37,0c1.5,0.04,3,0.12,4.37,0.42c6.91,1.42,9,7.46,9,13.41
	c0,5.96-2.37,11.96-9.29,13c-2.62,0.38-5.79,0.33-8.46,0.33h-7.41v-1.71h0.25c1.29,0.04,2.12-0.46,2.12-1.71v-20.33
	c0-1.21-0.83-1.71-2.12-1.67H620.4z M628.06,441.35v23.74c2.37,0,4.87-0.17,7-1.25c3.87-2,4.96-6.87,4.96-10.87
	c0-3.67-1.25-9.75-5.25-11.04C633.1,441.43,629.98,441.35,628.06,441.35z"/>
<path class="st0" d="M656.1,439.64v1.75h-0.25c-1.29,0-2.08,0.42-2.08,1.67v20.33c0,1.29,0.79,1.71,2.08,1.71h0.25v1.71h-10v-1.71
	h0.25c1.33,0,2.12-0.42,2.12-1.71v-20.33c0-1.25-0.79-1.67-2.12-1.67h-0.25v-1.75H656.1z"/>
<path class="st0" d="M658.47,439.64h22.16l1.92,8.66l-1.67,0.04l-0.04-0.17c-1.71-3.62-4.5-6.67-8.87-6.79v21.99
	c0,1.25,0.83,1.75,2.12,1.71h0.25v1.71h-10v-1.71h0.25c1.25,0.04,2.08-0.46,2.08-1.71v-21.99c-4.12,0.12-6.75,3.37-8.33,6.79
	l-0.04,0.17l-1.67-0.04L658.47,439.64z"/>
<path class="st0" d="M693.21,439.64v1.75h-0.25c-1.29,0-2.08,0.42-2.08,1.67v20.33c0,1.29,0.79,1.71,2.08,1.71h0.25v1.71h-10v-1.71
	h0.25c1.33,0,2.12-0.42,2.12-1.71v-20.33c0-1.25-0.79-1.67-2.12-1.67h-0.25v-1.75H693.21z"/>
<path class="st0" d="M706.29,439.18c8.33,0,11.79,6.71,11.79,13.79c0,7-3.46,14.25-11.87,14.25c-8.41,0-11.75-7.16-11.75-14.12
	C694.46,445.97,697.88,439.18,706.29,439.18z M706.25,465.51c5.54,0,6.29-8.46,6.29-12.41c0-4.04-0.75-12.21-6.25-12.21
	c-5.58,0-6.29,8.16-6.29,12.25C700,457.09,700.75,465.51,706.25,465.51z"/>
<path class="st0" d="M718.74,465.09h0.25c2.04,0,3.08-0.58,3.08-2.62V442.6c-0.71-0.67-1.71-1.21-2.75-1.21h-0.25v-1.75h7.54
	l13.08,18.04v-13.66c0-2.08-1.87-2.62-3.92-2.62h-0.25v-1.75h9.37v1.75h-0.25c-2.04,0-3.25,0.54-3.25,2.62v22.79h-1.58l-16-21.95
	v17.62c0,2.08,1.87,2.62,3.92,2.62h0.21v1.71h-9.21V465.09z"/>
<g>
	<path class="st1" d="M241.17,801.52c-8.08,7.66-16.85,13.47-26.32,17.43c-8.24,3.46-17.68,5.77-28.3,6.92
		c-7.42,0.82-17.76,1.24-31.02,1.24c7.74-2.8,15.43-5.58,23.05-8.34c7.62-2.76,13.95-5.46,18.97-8.1c6.42-3.3,13.06-7.5,19.9-12.6
		c6.43-4.7,11.13-8.41,14.09-11.13c3.95-3.63,7.83-8.12,11.62-13.47c6.1-8.65,10.3-16.15,12.6-22.49c2.63-7.25,3.95-15.7,3.95-25.34
		c0-6.51-0.37-11.64-1.11-15.39c-0.74-3.75-2.49-7.99-5.25-12.73s-5.71-8.61-8.84-11.62c-3.13-3.01-6.96-5.63-11.49-7.85v71.56
		l-3.34-4.45c-0.08,0-0.78-3.58-2.1-10.75c-1.65-8.81-2.97-17.67-3.95-26.57c-1.49-12.85-2.23-24.22-2.23-34.11
		c0-8.4,0.43-16.05,1.3-22.93c0.86-6.88,2.37-13.08,4.51-18.6c0.08,0,2.27,3.3,6.55,9.89c5.44,8.4,10.09,16.07,13.97,22.99
		c5.68,10.22,9.82,18.89,12.42,26.02c2.59,7.13,4.34,13.47,5.25,19.03c0.91,5.56,1.36,12.17,1.36,19.84c0,5.44-0.06,9.23-0.19,11.37
		c-0.13,2.14-0.47,5.48-1.05,10.01c0,10.63-2.1,19.94-6.3,27.93C255.67,786.04,249.65,793.45,241.17,801.52z"/>
</g>
<path class="st1" d="M261.62,871.22l7.23-14.75c0.58-1.16,1.16-1.74,1.74-1.74c0.96,0,5.06,2.46,12.29,7.37
	c7.23,4.92,10.84,7.76,10.84,8.53c0,3.09-3.18,9.73-9.54,19.95c-0.77,1.16-1.55,1.45-2.31,0.87c-6.36-4.63-13.4-9.45-21.11-14.46
	c-2.5,5.97-5.11,10.99-7.81,15.04c-0.58,1.35-1.35,1.73-2.31,1.16c-6.94-5.4-14.26-10.51-21.98-15.33c-0.38-0.19-0.38-0.77,0-1.73
	l9.25-18.22c0.58-1.16,1.16-1.73,1.73-1.73c0.77,0,4.19,2.02,10.27,6.07C255.98,866.31,259.89,869.3,261.62,871.22z"/>
<path class="st1" d="M448.31,771.41c-4.44-10.6-10.99-15.91-19.66-15.91c-6.94,0-14.17,3.76-21.69,11.28
	c-5.21,5.2-9.45,10.8-12.72,16.77c-1.74,0.19-3.76,2.89-6.07,8.1c-4.82,10.8-7.81,17.26-8.96,19.37
	c-4.05,7.33-11.09,13.21-21.11,17.64c-8.49,3.47-17.25,5.28-25.54,5.28c-11.96,0-22.7-4.29-32.24-12.87
	c-9.54-8.58-19.42-12.87-28.48-12.87c-24.1,0-51.38,18.22-82.99,54.08c-12.34,14.65-24.77,29.21-37.3,43.67
	c-14.85,15.42-27.28,23.13-37.3,23.13c-6.56,0-11.67-2.41-15.33-7.23c-3.47-4.44-5.21-10.41-5.21-17.93
	c0-9.44,3.08-22.56,9.25-39.33c6.17-16.77,9.25-26.5,9.25-29.21c0-0.77-0.19-1.16-0.58-1.16c-0.77,0-1.93,1.45-3.47,4.34
	c-14.27,27.96-21.4,50.61-21.4,67.96c0,12.53,3.66,23.23,10.99,32.1c6.94,8.29,15.13,12.43,24.58,12.43
	c8.29,0,16.58-3.76,24.87-11.28c5.59-4.82,13.97-14.17,25.16-28.05c12.72-15.81,23.03-27.76,30.94-35.86
	c25.64-26.22,48.68-39.33,69.11-39.33c5.39,0,10.89,2.12,16.48,6.36c9.06,7.52,14.36,11.66,15.9,12.43
	c7.71,4.43,16.96,6.65,27.76,6.65c11.18,0,22.26-4.51,32.48-13.96c9.83-9.06,17.35-20.63,22.56-34.7
	c17.35,13.3,34.7,19.95,52.05,19.95c3.47,0,6.55-3.37,9.25-10.12c3.08-7.13,4.63-15.42,4.63-24.87
	C453.51,788.47,451.78,779.51,448.31,771.41z M434.14,804.96c-0.77,0-1.84-0.19-3.18-0.58c-10.8-3.28-19.95-7.71-27.47-13.3
	c0-1.54,1.06-3.18,3.18-4.92c2.89-1.92,6.75-2.89,11.57-2.89c3.47,0,6.94,1.55,10.41,4.63c3.47,3.09,5.78,6.65,6.94,10.7
	c0.38,1.73,0.58,3.09,0.58,4.05C436.16,804.19,435.48,804.96,434.14,804.96z"/>
<path class="st1" d="M124.28,835.88c6.04,3.87,11.93,7.9,17.66,12.08c0.62,0.62,1.24,0.38,1.86-0.7c4.96-8.21,7.43-13.55,7.43-16.03
	c0-0.77-2.87-3.1-8.6-6.97c-5.73-3.87-8.98-5.81-9.76-5.81c-0.46,0-0.93,0.46-1.39,1.39l-7.2,14.87
	C123.97,835.34,123.97,835.72,124.28,835.88z"/>
<path class="st1" d="M118,864.45c6.2,3.87,12.08,7.97,17.66,12.31c0.78,0.46,1.39,0.15,1.86-0.93c2.17-3.25,4.26-7.28,6.27-12.08
	c6.19,4.03,11.85,7.9,16.96,11.62c0.62,0.46,1.24,0.23,1.86-0.7c5.11-8.21,7.67-13.55,7.67-16.03c0-0.78-2.9-3.1-8.71-6.97
	c-5.81-3.87-9.1-5.81-9.87-5.81c-0.46,0-0.93,0.46-1.39,1.39l-5.81,11.62c-1.39-1.39-4.53-3.72-9.41-6.97
	c-4.88-3.25-7.63-4.88-8.25-4.88c-0.46,0-0.93,0.46-1.39,1.39L118,863.29C117.7,863.91,117.7,864.3,118,864.45z"/>
<g>
	<path class="st1" d="M95.6,962.32v1.57h-0.22c-1.12,0-1.87,0.37-1.87,1.49l0.07,19.76h2.65c3.47,0,6.99-1.34,8.48-4.48l0.04-0.15
		l1.49,0.04l-1.64,6.13H86.63v-1.53h0.22c1.2,0,1.91-0.37,1.91-1.53v-18.23c0-1.12-0.71-1.49-1.91-1.49h-0.22v-1.57H95.6z"/>
	<path class="st1" d="M106.32,963.89v-1.57h18.04l1.61,7.77l-1.46,0.04l-0.04-0.15c-0.37-0.75-0.63-1.57-1.01-2.35
		c-1.2-2.47-2.91-3.74-5.79-3.74h-4.48v10.16c1.23,0,2.54,0,3.81-0.04c2.61-0.04,4.26-0.6,4.3-3.21v-0.22h1.53v7.88h-1.57v-0.22
		c0-2.47-1.91-2.54-4.26-2.58l-3.81-0.04v9.53h6.24c2.58,0,4-1.49,5.01-3.66c0.37-0.82,0.63-1.64,1.01-2.47l0.04-0.15l1.49,0.04
		l-1.64,7.77h-19.01v-1.53h0.22c1.2,0.04,1.91-0.37,1.91-1.53v-18.23c0-1.12-0.71-1.53-1.91-1.49H106.32z"/>
	<path class="st1" d="M127.35,975.02c0-7.55,4.3-13.07,12.59-13.07c2.43,0,5.19,0.49,7.1,2.17c0.04,0.04,0.22,0.19,0.41,0.34
		l0.26,0.26c0.04,0.04,0.04,0.07,0.07,0.11c0.04,0.07,0.07,0.11,0.07,0.15l0.6,4.97h-1.53l-0.04-0.15c-0.15-0.6-0.56-1.23-0.86-1.83
		c-1.38-2.28-3.51-4.41-6.35-4.41c-5.27,0-7.36,6.69-7.36,10.98c0,5.19,1.91,10.91,8.18,10.91c1.01,0,2.35-0.15,3.4-0.49v-6.57
		c0-1.08-0.86-1.49-2.02-1.46h-0.22v-1.57h9.11v1.57h-0.22c-1.16-0.04-1.91,0.41-1.91,1.49v5.6l-0.07,0.07
		c-2.39,2.32-5.53,3.1-8.82,3.1C131.75,987.2,127.35,982.49,127.35,975.02z"/>
	<path class="st1" d="M149.61,985.14c1.83-0.04,3.03-1.16,3.7-2.76l8.67-20.06h1.64l8.96,21.1c0.52,1.27,1.2,1.72,2.54,1.72h0.22
		v1.53h-9.86v-1.53h0.22c0.41,0,0.9-0.04,1.31-0.15c0.37-0.15,0.6-0.37,0.6-0.78c0-0.19-0.04-0.45-0.15-0.64l-2.58-6.09h-7.55
		l-2.09,5.04c-0.11,0.26-0.19,0.67-0.19,1.01c0,1.31,1.31,1.53,2.32,1.61h1.34v1.53h-9.34v-1.53H149.61z M164.21,975.92l-3.14-7.43
		l-3.14,7.43H164.21z"/>
	<path class="st1" d="M185.84,961.91c2.69,0,5.57,0.71,7.66,2.47c0.04,0.07,0.26,0.26,0.49,0.49l0.3,0.3
		c0.04,0.04,0.07,0.11,0.11,0.15c0.04,0.07,0.07,0.11,0.07,0.15c0.26,1.46,0.41,2.95,0.6,4.37l0.04,0.26h-1.53l-0.04-0.11
		c-1.68-3.18-3.88-6.46-7.92-6.46c-5.04,0-6.84,7.32-6.84,11.28c0,4,1.76,10.57,6.76,10.57c4.45,0,6.8-4.11,8.22-7.7l0.07-0.15h1.53
		l-0.04,0.26c-0.19,1.68-0.34,3.4-0.56,5.12c0,0.11-0.07,0.22-0.15,0.3c-0.07,0.11-0.15,0.22-0.26,0.34
		c-0.19,0.22-0.37,0.45-0.45,0.56c-2.09,2.09-5.45,3.03-8.37,3.03c-8.11,0-11.77-5.34-11.77-12.55
		C173.78,967.44,178,961.91,185.84,961.91z"/>
	<path class="st1" d="M195.4,962.32h11.21v1.57h-0.22c-0.34,0-0.97,0.04-1.53,0.22c-0.56,0.15-0.86,0.37-0.86,0.71
		c0,0.19,0.07,0.37,0.22,0.56l6.01,8.26l4.89-7.17c0.3-0.45,0.52-0.9,0.52-1.34c0-1.08-1.49-1.23-2.28-1.23h-0.22v-1.57h7.92v1.57
		h-0.22c-1.23,0-2.2,0.71-2.95,1.72l-6.76,9.38v8.63c0,1.16,0.71,1.53,1.91,1.53h0.22v1.53h-9v-1.53h0.22c1.2,0,1.91-0.37,1.91-1.53
		v-7.21l-7.81-10.8c-0.71-1.01-1.68-1.72-2.95-1.72h-0.22V962.32z"/>
	<path class="st1" d="M239.55,961.91c7.47,0,10.57,6.01,10.57,12.36c0,6.28-3.1,12.77-10.65,12.77c-7.55,0-10.53-6.42-10.53-12.66
		C228.95,968,232.01,961.91,239.55,961.91z M239.52,985.52c4.97,0,5.64-7.58,5.64-11.13c0-3.62-0.67-10.94-5.6-10.94
		c-5.01,0-5.64,7.32-5.64,10.98C233.91,977.97,234.59,985.52,239.52,985.52z"/>
	<path class="st1" d="M250.54,985.14h0.22c1.2,0,1.91-0.37,1.91-1.53v-18.23c0-1.12-0.71-1.49-1.91-1.49h-0.22v-1.57h18.12
		l1.61,7.77l-1.46,0.04l-0.04-0.15c-0.34-0.67-0.6-1.46-0.93-2.17c-1.01-2.32-2.43-3.92-5.12-3.92h-5.3v10.16l3.81-0.04
		c2.61-0.04,4.26-0.6,4.3-3.21v-0.22h1.53v7.88h-1.57v-0.22c0-2.47-1.91-2.58-4.26-2.58l-3.81-0.04v7.99c0,1.16,0.71,1.53,1.87,1.53
		h0.22v1.53h-8.96V985.14z"/>
	<path class="st1" d="M279.04,962.32h19.87l1.72,7.77l-1.49,0.04l-0.04-0.15c-1.53-3.25-4.03-5.98-7.96-6.09v19.72
		c0,1.12,0.75,1.57,1.91,1.53h0.22v1.53h-8.97v-1.53h0.22c1.12,0.04,1.87-0.41,1.87-1.53v-19.72c-3.7,0.11-6.05,3.03-7.47,6.09
		l-0.04,0.15l-1.49-0.04L279.04,962.32z"/>
	<path class="st1" d="M301,985.14c1.2,0,1.91-0.37,1.91-1.53v-18.23c0-1.12-0.71-1.49-1.91-1.49h-0.22v-1.57H301
		c2.91,0,5.86-0.04,8.78-0.04c1.64,0,3.47,0.04,5.12,0.45c2.99,0.82,4.71,3.25,4.71,6.16c0,3.47-2.32,5.57-5.34,6.24
		c3.55,0.6,5.9,2.58,8.63,5.12c1.42-0.11,2.95-1.61,3.44-2.84l6.2-15.09h1.49l6.65,16.14c0.34,0.86,0.78,1.76,1.72,1.72h0.22v1.53
		h-7.62v-1.53h0.22c0.56,0.04,0.86-0.11,0.86-0.52c0-0.37-0.26-1.23-0.6-2.09c-0.34-0.82-0.71-1.64-0.9-2.09h-5.53
		c-0.19,0.45-0.41,1.01-0.64,1.57c-0.26,0.63-0.41,1.23-0.41,1.64c0,1.08,0.82,1.49,1.91,1.49h0.22v1.53h-5.45
		c2.24,1.76,4.78,3.14,7.73,3.14c2.2,0,4.86-0.63,5.9-2.54l0.07-0.15l1.38,0.56l-0.11,0.19c-1.68,3.7-6.24,4.89-10.01,4.89
		c-4.56,0-8.11-1.94-11.17-5.01c-1.05-1.05-2.47-2.61-3.96-4.07c-1.46-1.42-3.03-2.65-4.45-2.99c-0.63-0.19-1.2-0.26-1.87-0.26
		c-0.19,0-0.37,0.04-0.56,0.04v8.11c0,1.12,0.37,1.57,1.49,1.53h0.22v1.53h-8.59v-1.53H301z M307.65,963.81v10.16
		c0.64,0,1.38,0,2.17-0.04c0.86-0.07,1.68-0.19,2.28-0.41c1.83-0.75,2.54-2.76,2.54-4.63c0-1.83-0.71-3.92-2.54-4.63
		c-0.6-0.22-1.42-0.34-2.28-0.41C309.03,963.81,308.28,963.81,307.65,963.81z M333.95,973.94l-2.17-5.3l-2.09,5.3H333.95z"/>
	<path class="st1" d="M342.24,963.89v-1.57h6.65c1.27,0,2.58-0.04,3.92,0c1.34,0.04,2.69,0.11,3.92,0.37
		c6.2,1.27,8.07,6.69,8.07,12.03c0,5.34-2.13,10.72-8.33,11.65c-2.35,0.34-5.19,0.3-7.58,0.3h-6.65v-1.53h0.22
		c1.16,0.04,1.91-0.41,1.91-1.53v-18.23c0-1.08-0.75-1.53-1.91-1.49H342.24z M349.11,963.85v21.29c2.13,0,4.37-0.15,6.28-1.12
		c3.47-1.79,4.45-6.16,4.45-9.75c0-3.29-1.12-8.74-4.71-9.9C353.63,963.93,350.83,963.85,349.11,963.85z"/>
	<path class="st1" d="M374.25,962.32v1.57h-0.22c-1.16,0-1.87,0.37-1.87,1.49v18.23c0,1.16,0.71,1.53,1.87,1.53h0.22v1.53h-8.96
		v-1.53h0.22c1.2,0,1.91-0.37,1.91-1.53v-18.23c0-1.12-0.71-1.49-1.91-1.49h-0.22v-1.57H374.25z"/>
	<path class="st1" d="M376.38,962.32h19.87l1.72,7.77l-1.49,0.04l-0.04-0.15c-1.53-3.25-4.03-5.98-7.96-6.09v19.72
		c0,1.12,0.75,1.57,1.91,1.53h0.22v1.53h-8.97v-1.53h0.22c1.12,0.04,1.87-0.41,1.87-1.53v-19.72c-3.7,0.11-6.05,3.03-7.47,6.09
		l-0.04,0.15l-1.49-0.04L376.38,962.32z"/>
	<path class="st1" d="M407.53,962.32v1.57h-0.22c-1.16,0-1.87,0.37-1.87,1.49v18.23c0,1.16,0.71,1.53,1.87,1.53h0.22v1.53h-8.96
		v-1.53h0.22c1.2,0,1.91-0.37,1.91-1.53v-18.23c0-1.12-0.71-1.49-1.91-1.49h-0.22v-1.57H407.53z"/>
	<path class="st1" d="M419.26,961.91c7.47,0,10.57,6.01,10.57,12.36c0,6.28-3.1,12.77-10.65,12.77c-7.55,0-10.53-6.42-10.53-12.66
		C408.65,968,411.71,961.91,419.26,961.91z M419.22,985.52c4.97,0,5.64-7.58,5.64-11.13c0-3.62-0.67-10.94-5.6-10.94
		c-5.01,0-5.64,7.32-5.64,10.98C413.62,977.97,414.29,985.52,419.22,985.52z"/>
	<path class="st1" d="M430.43,985.14h0.22c1.83,0,2.76-0.52,2.76-2.35v-17.82c-0.64-0.6-1.53-1.08-2.47-1.08h-0.22v-1.57h6.76
		l11.73,16.17v-12.25c0-1.87-1.68-2.35-3.51-2.35h-0.22v-1.57h8.4v1.57h-0.22c-1.83,0-2.91,0.49-2.91,2.35v20.43h-1.42l-14.34-19.69
		v15.8c0,1.87,1.68,2.35,3.51,2.35h0.19v1.53h-8.26V985.14z"/>
</g>
<g>
	<g>
		<path class="st0" d="M780.91,801.52c-8.08,7.66-16.85,13.47-26.32,17.43c-8.24,3.46-17.68,5.77-28.3,6.92
			c-7.42,0.82-17.76,1.24-31.02,1.24c7.74-2.8,15.43-5.58,23.05-8.34c7.62-2.76,13.95-5.46,18.97-8.1c6.42-3.3,13.06-7.5,19.9-12.6
			c6.43-4.7,11.13-8.41,14.09-11.13c3.95-3.63,7.83-8.12,11.62-13.47c6.1-8.65,10.3-16.15,12.6-22.49
			c2.63-7.25,3.95-15.7,3.95-25.34c0-6.51-0.37-11.64-1.11-15.39c-0.74-3.75-2.49-7.99-5.25-12.73s-5.71-8.61-8.84-11.62
			s-6.96-5.63-11.49-7.85v71.56l-3.34-4.45c-0.08,0-0.78-3.58-2.1-10.75c-1.65-8.81-2.97-17.67-3.95-26.57
			c-1.49-12.85-2.23-24.22-2.23-34.11c0-8.4,0.43-16.05,1.3-22.93c0.86-6.88,2.37-13.08,4.51-18.6c0.08,0,2.27,3.3,6.55,9.89
			c5.44,8.4,10.09,16.07,13.97,22.99c5.68,10.22,9.82,18.89,12.42,26.02c2.59,7.13,4.34,13.47,5.25,19.03
			c0.91,5.56,1.36,12.17,1.36,19.84c0,5.44-0.06,9.23-0.19,11.37c-0.13,2.14-0.47,5.48-1.05,10.01c0,10.63-2.1,19.94-6.3,27.93
			C795.41,786.04,789.4,793.45,780.91,801.52z"/>
	</g>
	<path class="st0" d="M801.36,871.22l7.23-14.75c0.58-1.16,1.16-1.74,1.74-1.74c0.96,0,5.06,2.46,12.29,7.37
		c7.23,4.92,10.84,7.76,10.84,8.53c0,3.09-3.18,9.73-9.54,19.95c-0.77,1.16-1.55,1.45-2.31,0.87c-6.36-4.63-13.4-9.45-21.11-14.46
		c-2.5,5.97-5.11,10.99-7.81,15.04c-0.58,1.35-1.35,1.73-2.31,1.16c-6.94-5.4-14.26-10.51-21.98-15.33c-0.38-0.19-0.38-0.77,0-1.73
		l9.25-18.22c0.58-1.16,1.16-1.73,1.73-1.73c0.77,0,4.19,2.02,10.27,6.07C795.72,866.31,799.63,869.3,801.36,871.22z"/>
	<path class="st0" d="M988.05,771.41c-4.44-10.6-10.99-15.91-19.66-15.91c-6.94,0-14.17,3.76-21.69,11.28
		c-5.21,5.2-9.45,10.8-12.72,16.77c-1.74,0.19-3.76,2.89-6.07,8.1c-4.82,10.8-7.81,17.26-8.96,19.37
		c-4.05,7.33-11.09,13.21-21.11,17.64c-8.49,3.47-17.25,5.28-25.54,5.28c-11.96,0-22.7-4.29-32.24-12.87
		c-9.54-8.58-19.42-12.87-28.48-12.87c-24.1,0-51.38,18.22-82.99,54.08c-12.34,14.65-24.77,29.21-37.3,43.67
		c-14.85,15.42-27.28,23.13-37.3,23.13c-6.56,0-11.67-2.41-15.33-7.23c-3.47-4.44-5.21-10.41-5.21-17.93
		c0-9.44,3.08-22.56,9.25-39.33c6.17-16.77,9.25-26.5,9.25-29.21c0-0.77-0.19-1.16-0.58-1.16c-0.77,0-1.93,1.45-3.47,4.34
		c-14.27,27.96-21.4,50.61-21.4,67.96c0,12.53,3.66,23.23,10.99,32.1c6.94,8.29,15.13,12.43,24.58,12.43
		c8.29,0,16.58-3.76,24.87-11.28c5.59-4.82,13.97-14.17,25.16-28.05c12.72-15.81,23.03-27.76,30.94-35.86
		c25.64-26.22,48.68-39.33,69.11-39.33c5.39,0,10.89,2.12,16.48,6.36c9.06,7.52,14.36,11.66,15.9,12.43
		c7.71,4.43,16.96,6.65,27.76,6.65c11.18,0,22.26-4.51,32.48-13.96c9.83-9.06,17.35-20.63,22.56-34.7
		c17.35,13.3,34.7,19.95,52.05,19.95c3.47,0,6.55-3.37,9.25-10.12c3.08-7.13,4.63-15.42,4.63-24.87
		C993.26,788.47,991.52,779.51,988.05,771.41z M973.88,804.96c-0.77,0-1.84-0.19-3.18-0.58c-10.8-3.28-19.95-7.71-27.47-13.3
		c0-1.54,1.06-3.18,3.18-4.92c2.89-1.92,6.75-2.89,11.57-2.89c3.47,0,6.94,1.55,10.41,4.63c3.47,3.09,5.78,6.65,6.94,10.7
		c0.38,1.73,0.58,3.09,0.58,4.05C975.9,804.19,975.23,804.96,973.88,804.96z"/>
	<path class="st0" d="M664.02,835.88c6.04,3.87,11.93,7.9,17.66,12.08c0.62,0.62,1.24,0.38,1.86-0.7
		c4.96-8.21,7.43-13.55,7.43-16.03c0-0.77-2.87-3.1-8.6-6.97c-5.73-3.87-8.98-5.81-9.76-5.81c-0.46,0-0.93,0.46-1.39,1.39
		l-7.2,14.87C663.71,835.34,663.71,835.72,664.02,835.88z"/>
	<path class="st0" d="M657.75,864.45c6.2,3.87,12.08,7.97,17.66,12.31c0.78,0.46,1.39,0.15,1.86-0.93
		c2.17-3.25,4.26-7.28,6.27-12.08c6.19,4.03,11.85,7.9,16.96,11.62c0.62,0.46,1.24,0.23,1.86-0.7c5.11-8.21,7.67-13.55,7.67-16.03
		c0-0.78-2.9-3.1-8.71-6.97c-5.81-3.87-9.1-5.81-9.87-5.81c-0.46,0-0.93,0.46-1.39,1.39l-5.81,11.62c-1.39-1.39-4.53-3.72-9.41-6.97
		c-4.88-3.25-7.63-4.88-8.25-4.88c-0.46,0-0.93,0.46-1.39,1.39l-7.43,14.87C657.44,863.91,657.44,864.3,657.75,864.45z"/>
	<g>
		<path class="st0" d="M635.34,962.32v1.57h-0.22c-1.12,0-1.87,0.37-1.87,1.49l0.07,19.76h2.65c3.47,0,6.99-1.34,8.48-4.48
			l0.04-0.15l1.49,0.04l-1.64,6.13h-17.97v-1.53h0.22c1.2,0,1.91-0.37,1.91-1.53v-18.23c0-1.12-0.71-1.49-1.91-1.49h-0.22v-1.57
			H635.34z"/>
		<path class="st0" d="M646.06,963.89v-1.57h18.04l1.61,7.77l-1.46,0.04l-0.04-0.15c-0.37-0.75-0.63-1.57-1.01-2.35
			c-1.2-2.47-2.91-3.74-5.79-3.74h-4.48v10.16c1.23,0,2.54,0,3.81-0.04c2.61-0.04,4.26-0.6,4.3-3.21v-0.22h1.53v7.88H661v-0.22
			c0-2.47-1.91-2.54-4.26-2.58l-3.81-0.04v9.53h6.24c2.58,0,4-1.49,5.01-3.66c0.37-0.82,0.63-1.64,1.01-2.47l0.04-0.15l1.49,0.04
			l-1.64,7.77h-19.01v-1.53h0.22c1.2,0.04,1.91-0.37,1.91-1.53v-18.23c0-1.12-0.71-1.53-1.91-1.49H646.06z"/>
		<path class="st0" d="M667.09,975.02c0-7.55,4.3-13.07,12.59-13.07c2.43,0,5.19,0.49,7.1,2.17c0.04,0.04,0.22,0.19,0.41,0.34
			l0.26,0.26c0.04,0.04,0.04,0.07,0.07,0.11c0.04,0.07,0.07,0.11,0.07,0.15l0.6,4.97h-1.53l-0.04-0.15
			c-0.15-0.6-0.56-1.23-0.86-1.83c-1.38-2.28-3.51-4.41-6.35-4.41c-5.27,0-7.36,6.69-7.36,10.98c0,5.19,1.91,10.91,8.18,10.91
			c1.01,0,2.35-0.15,3.4-0.49v-6.57c0-1.08-0.86-1.49-2.02-1.46h-0.22v-1.57h9.11v1.57h-0.22c-1.16-0.04-1.91,0.41-1.91,1.49v5.6
			l-0.07,0.07c-2.39,2.32-5.53,3.1-8.82,3.1C671.5,987.2,667.09,982.49,667.09,975.02z"/>
		<path class="st0" d="M689.35,985.14c1.83-0.04,3.03-1.16,3.7-2.76l8.67-20.06h1.64l8.96,21.1c0.52,1.27,1.2,1.72,2.54,1.72h0.22
			v1.53h-9.86v-1.53h0.22c0.41,0,0.9-0.04,1.31-0.15c0.37-0.15,0.6-0.37,0.6-0.78c0-0.19-0.04-0.45-0.15-0.64l-2.58-6.09h-7.55
			l-2.09,5.04c-0.11,0.26-0.19,0.67-0.19,1.01c0,1.31,1.31,1.53,2.32,1.61h1.34v1.53h-9.34v-1.53H689.35z M703.96,975.92l-3.14-7.43
			l-3.14,7.43H703.96z"/>
		<path class="st0" d="M725.58,961.91c2.69,0,5.57,0.71,7.66,2.47c0.04,0.07,0.26,0.26,0.49,0.49l0.3,0.3
			c0.04,0.04,0.07,0.11,0.11,0.15c0.04,0.07,0.07,0.11,0.07,0.15c0.26,1.46,0.41,2.95,0.6,4.37l0.04,0.26h-1.53l-0.04-0.11
			c-1.68-3.18-3.88-6.46-7.92-6.46c-5.04,0-6.84,7.32-6.84,11.28c0,4,1.76,10.57,6.76,10.57c4.45,0,6.8-4.11,8.22-7.7l0.07-0.15
			h1.53l-0.04,0.26c-0.19,1.68-0.34,3.4-0.56,5.12c0,0.11-0.07,0.22-0.15,0.3c-0.07,0.11-0.15,0.22-0.26,0.34
			c-0.19,0.22-0.37,0.45-0.45,0.56c-2.09,2.09-5.45,3.03-8.37,3.03c-8.11,0-11.77-5.34-11.77-12.55
			C713.52,967.44,717.74,961.91,725.58,961.91z"/>
		<path class="st0" d="M735.14,962.32h11.21v1.57h-0.22c-0.34,0-0.97,0.04-1.53,0.22c-0.56,0.15-0.86,0.37-0.86,0.71
			c0,0.19,0.07,0.37,0.22,0.56l6.01,8.26l4.89-7.17c0.3-0.45,0.52-0.9,0.52-1.34c0-1.08-1.49-1.23-2.28-1.23h-0.22v-1.57h7.92v1.57
			h-0.22c-1.23,0-2.2,0.71-2.95,1.72l-6.76,9.38v8.63c0,1.16,0.71,1.53,1.91,1.53H753v1.53h-9v-1.53h0.22c1.2,0,1.91-0.37,1.91-1.53
			v-7.21l-7.81-10.8c-0.71-1.01-1.68-1.72-2.95-1.72h-0.22V962.32z"/>
		<path class="st0" d="M779.3,961.91c7.47,0,10.57,6.01,10.57,12.36c0,6.28-3.1,12.77-10.65,12.77s-10.53-6.42-10.53-12.66
			C768.69,968,771.75,961.91,779.3,961.91z M779.26,985.52c4.97,0,5.64-7.58,5.64-11.13c0-3.62-0.67-10.94-5.6-10.94
			c-5.01,0-5.64,7.32-5.64,10.98C773.66,977.97,774.33,985.52,779.26,985.52z"/>
		<path class="st0" d="M790.28,985.14h0.22c1.2,0,1.91-0.37,1.91-1.53v-18.23c0-1.12-0.71-1.49-1.91-1.49h-0.22v-1.57h18.12
			l1.61,7.77l-1.46,0.04l-0.04-0.15c-0.34-0.67-0.6-1.46-0.93-2.17c-1.01-2.32-2.43-3.92-5.12-3.92h-5.3v10.16l3.81-0.04
			c2.61-0.04,4.26-0.6,4.3-3.21v-0.22h1.53v7.88h-1.57v-0.22c0-2.47-1.91-2.58-4.26-2.58l-3.81-0.04v7.99
			c0,1.16,0.71,1.53,1.87,1.53h0.22v1.53h-8.96V985.14z"/>
		<path class="st0" d="M818.78,962.32h19.87l1.72,7.77l-1.49,0.04l-0.04-0.15c-1.53-3.25-4.03-5.98-7.96-6.09v19.72
			c0,1.12,0.75,1.57,1.91,1.53h0.22v1.53h-8.97v-1.53h0.22c1.12,0.04,1.87-0.41,1.87-1.53v-19.72c-3.7,0.11-6.05,3.03-7.47,6.09
			l-0.04,0.15l-1.49-0.04L818.78,962.32z"/>
		<path class="st0" d="M840.74,985.14c1.2,0,1.91-0.37,1.91-1.53v-18.23c0-1.12-0.71-1.49-1.91-1.49h-0.22v-1.57h0.22
			c2.91,0,5.86-0.04,8.78-0.04c1.64,0,3.47,0.04,5.12,0.45c2.99,0.82,4.71,3.25,4.71,6.16c0,3.47-2.32,5.57-5.34,6.24
			c3.55,0.6,5.9,2.58,8.63,5.12c1.42-0.11,2.95-1.61,3.44-2.84l6.2-15.09h1.49l6.65,16.14c0.34,0.86,0.78,1.76,1.72,1.72h0.22v1.53
			h-7.62v-1.53h0.22c0.56,0.04,0.86-0.11,0.86-0.52c0-0.37-0.26-1.23-0.6-2.09c-0.34-0.82-0.71-1.64-0.9-2.09h-5.53
			c-0.19,0.45-0.41,1.01-0.64,1.57c-0.26,0.63-0.41,1.23-0.41,1.64c0,1.08,0.82,1.49,1.91,1.49h0.22v1.53h-5.45
			c2.24,1.76,4.78,3.14,7.73,3.14c2.2,0,4.86-0.63,5.9-2.54l0.07-0.15l1.38,0.56l-0.11,0.19c-1.68,3.7-6.24,4.89-10.01,4.89
			c-4.56,0-8.11-1.94-11.17-5.01c-1.05-1.05-2.47-2.61-3.96-4.07c-1.46-1.42-3.03-2.65-4.45-2.99c-0.63-0.19-1.2-0.26-1.87-0.26
			c-0.19,0-0.37,0.04-0.56,0.04v8.11c0,1.12,0.37,1.57,1.49,1.53h0.22v1.53h-8.59v-1.53H840.74z M847.39,963.81v10.16
			c0.64,0,1.38,0,2.17-0.04c0.86-0.07,1.68-0.19,2.28-0.41c1.83-0.75,2.54-2.76,2.54-4.63c0-1.83-0.71-3.92-2.54-4.63
			c-0.6-0.22-1.42-0.34-2.28-0.41C848.77,963.81,848.03,963.81,847.39,963.81z M873.69,973.94l-2.17-5.3l-2.09,5.3H873.69z"/>
		<path class="st0" d="M881.98,963.89v-1.57h6.65c1.27,0,2.58-0.04,3.92,0c1.34,0.04,2.69,0.11,3.92,0.37
			c6.2,1.27,8.07,6.69,8.07,12.03c0,5.34-2.13,10.72-8.33,11.65c-2.35,0.34-5.19,0.3-7.58,0.3h-6.65v-1.53h0.22
			c1.16,0.04,1.91-0.41,1.91-1.53v-18.23c0-1.08-0.75-1.53-1.91-1.49H881.98z M888.85,963.85v21.29c2.13,0,4.37-0.15,6.28-1.12
			c3.47-1.79,4.45-6.16,4.45-9.75c0-3.29-1.12-8.74-4.71-9.9C893.37,963.93,890.57,963.85,888.85,963.85z"/>
		<path class="st0" d="M913.99,962.32v1.57h-0.22c-1.16,0-1.87,0.37-1.87,1.49v18.23c0,1.16,0.71,1.53,1.87,1.53h0.22v1.53h-8.96
			v-1.53h0.22c1.2,0,1.91-0.37,1.91-1.53v-18.23c0-1.12-0.71-1.49-1.91-1.49h-0.22v-1.57H913.99z"/>
		<path class="st0" d="M916.12,962.32h19.87l1.72,7.77l-1.49,0.04l-0.04-0.15c-1.53-3.25-4.03-5.98-7.96-6.09v19.72
			c0,1.12,0.75,1.57,1.91,1.53h0.22v1.53h-8.97v-1.53h0.22c1.12,0.04,1.87-0.41,1.87-1.53v-19.72c-3.7,0.11-6.05,3.03-7.47,6.09
			l-0.04,0.15l-1.49-0.04L916.12,962.32z"/>
		<path class="st0" d="M947.27,962.32v1.57h-0.22c-1.16,0-1.87,0.37-1.87,1.49v18.23c0,1.16,0.71,1.53,1.87,1.53h0.22v1.53h-8.96
			v-1.53h0.22c1.2,0,1.91-0.37,1.91-1.53v-18.23c0-1.12-0.71-1.49-1.91-1.49h-0.22v-1.57H947.27z"/>
		<path class="st0" d="M959,961.91c7.47,0,10.57,6.01,10.57,12.36c0,6.28-3.1,12.77-10.65,12.77s-10.53-6.42-10.53-12.66
			C948.39,968,951.45,961.91,959,961.91z M958.96,985.52c4.97,0,5.64-7.58,5.64-11.13c0-3.62-0.67-10.94-5.6-10.94
			c-5.01,0-5.64,7.32-5.64,10.98C953.36,977.97,954.03,985.52,958.96,985.52z"/>
		<path class="st0" d="M970.17,985.14h0.22c1.83,0,2.76-0.52,2.76-2.35v-17.82c-0.64-0.6-1.53-1.08-2.47-1.08h-0.22v-1.57h6.76
			l11.73,16.17v-12.25c0-1.87-1.68-2.35-3.51-2.35h-0.22v-1.57h8.4v1.57h-0.22c-1.83,0-2.91,0.49-2.91,2.35v20.43h-1.42
			l-14.34-19.69v15.8c0,1.87,1.68,2.35,3.51,2.35h0.19v1.53h-8.26V985.14z"/>
	</g>
</g>
</svg>
