<?xml version="1.0" encoding="utf-8"?>
<!-- Generator: Adobe Illustrator 27.5.0, SVG Export Plug-In . SVG Version: 6.00 Build 0)  -->
<svg version="1.1" id="Layer_1" xmlns="http://www.w3.org/2000/svg" xmlns:xlink="http://www.w3.org/1999/xlink" x="0px" y="0px"
	 viewBox="0 0 1080 1080" style="enable-background:new 0 0 1080 1080;" xml:space="preserve">
<style type="text/css">
	.st0{fill:#FF7402;}
</style>
<g>
	<path d="M468.6,486.26c-17.7,16.8-36.93,29.53-57.69,38.2c-18.06,7.58-38.74,12.64-62.03,15.17c-16.26,1.81-38.92,2.71-67.99,2.71
		c16.97-6.14,33.81-12.24,50.52-18.28c16.71-6.06,30.57-11.97,41.58-17.75c14.08-7.22,28.62-16.43,43.61-27.62
		c14.09-10.3,24.38-18.42,30.88-24.38c8.67-7.95,17.16-17.79,25.46-29.52c13.36-18.96,22.57-35.4,27.62-49.3
		c5.77-15.89,8.67-34.41,8.67-55.53c0-14.26-0.81-25.5-2.44-33.72c-1.63-8.22-5.47-17.51-11.51-27.9
		c-6.05-10.39-12.51-18.87-19.37-25.46c-6.86-6.6-15.26-12.33-25.19-17.21v156.84l-7.31-9.75c-0.18,0-1.72-7.85-4.6-23.57
		c-3.61-19.32-6.51-38.73-8.67-58.24c-3.26-28.17-4.88-53.08-4.88-74.75c0-18.42,0.94-35.17,2.85-50.25
		c1.89-15.08,5.19-28.67,9.89-40.77c0.18,0,4.97,7.22,14.36,21.67c11.92,18.42,22.12,35.21,30.61,50.38
		c12.46,22.4,21.53,41.41,27.22,57.02c5.68,15.62,9.52,29.52,11.51,41.71s2.98,26.68,2.98,43.48c0,11.92-0.14,20.23-0.41,24.92
		c-0.27,4.69-1.04,12.01-2.3,21.93c0,23.29-4.6,43.7-13.81,61.22C500.38,452.31,487.19,468.56,468.6,486.26z"/>
</g>
<path class="st0" d="M513.42,639.02l15.84-32.32c1.27-2.54,2.54-3.8,3.8-3.8c2.11,0,11.09,5.39,26.93,16.16
	c15.84,10.77,23.77,17.01,23.77,18.7c0,6.76-6.97,21.33-20.92,43.73c-1.69,2.53-3.39,3.17-5.07,1.9
	c-13.94-10.14-29.37-20.71-46.27-31.69c-5.49,13.09-11.19,24.08-17.11,32.96c-1.27,2.95-2.95,3.8-5.07,2.54
	c-15.21-11.83-31.26-23.04-48.17-33.59c-0.84-0.43-0.84-1.69,0-3.8l20.28-39.93c1.27-2.53,2.53-3.8,3.8-3.8
	c1.69,0,9.19,4.44,22.5,13.31C501.06,628.24,509.62,634.8,513.42,639.02z"/>
<path d="M922.58,420.26c-9.72-23.23-24.08-34.86-43.1-34.86c-15.21,0-31.06,8.24-47.53,24.72c-11.41,11.41-20.71,23.67-27.89,36.76
	c-3.8,0.43-8.24,6.34-13.31,17.75c-10.57,23.67-17.11,37.82-19.65,42.46c-8.87,16.06-24.3,28.95-46.27,38.66
	c-18.6,7.6-37.81,11.58-55.97,11.58c-26.2,0-49.75-9.4-70.67-28.2c-20.91-18.8-42.57-28.2-62.43-28.2
	c-52.82,0-112.61,39.93-181.9,118.52c-27.04,32.12-54.3,64.01-81.76,95.7c-32.54,33.8-59.79,50.7-81.76,50.7
	c-14.37,0-25.57-5.29-33.59-15.84c-7.61-9.72-11.41-22.82-11.41-39.3c0-20.7,6.75-49.43,20.28-86.19
	c13.52-36.76,20.28-58.09,20.28-64.01c0-1.68-0.43-2.53-1.27-2.53c-1.69,0-4.23,3.17-7.6,9.51c-31.27,61.27-46.9,110.91-46.9,148.94
	c0,27.46,8.02,50.91,24.08,70.35c15.21,18.16,33.16,27.25,53.87,27.25c18.16,0,36.33-8.24,54.51-24.72
	c12.25-10.57,30.63-31.06,55.14-61.48c27.89-34.64,50.48-60.84,67.81-78.59c56.19-57.46,106.68-86.19,151.47-86.19
	c11.82,0,23.87,4.64,36.13,13.94c19.86,16.48,31.47,25.56,34.86,27.25c16.89,9.71,37.18,14.58,60.84,14.58
	c24.5,0,48.78-9.89,71.18-30.59c21.55-19.85,38.03-45.21,49.43-76.05c38.03,29.15,76.05,43.73,114.08,43.73
	c7.61,0,14.36-7.39,20.28-22.18c6.75-15.63,10.14-33.8,10.14-54.51C933.99,457.66,930.19,438.01,922.58,420.26z M891.53,493.78
	c-1.69,0-4.02-0.42-6.97-1.27c-23.67-7.18-43.73-16.89-60.21-29.15c0-3.38,2.32-6.97,6.97-10.77c6.34-4.22,14.79-6.34,25.35-6.34
	c7.6,0,15.21,3.39,22.82,10.14c7.6,6.76,12.67,14.58,15.21,23.45c0.84,3.8,1.27,6.76,1.27,8.87
	C895.96,492.1,894.48,493.78,891.53,493.78z"/>
<path class="st0" d="M212.41,561.55c13.24,8.49,26.14,17.31,38.7,26.48c1.36,1.35,2.72,0.84,4.07-1.53
	c10.86-17.99,16.29-29.7,16.29-35.13c0-1.69-6.28-6.79-18.84-15.27c-12.55-8.48-19.68-12.73-21.38-12.73
	c-1.02,0-2.04,1.02-3.06,3.05L212.41,559C211.73,560.36,211.73,561.21,212.41,561.55z"/>
<path class="st0" d="M198.66,624.17c13.58,8.48,26.47,17.48,38.7,26.99c1.7,1.02,3.06,0.33,4.07-2.04
	c4.76-7.13,9.34-15.96,13.75-26.48c13.57,8.82,25.97,17.31,37.17,25.46c1.35,1.02,2.71,0.51,4.07-1.53
	c11.2-18,16.8-29.71,16.8-35.13c0-1.7-6.36-6.79-19.09-15.27c-12.73-8.49-19.94-12.73-21.64-12.73c-1.02,0-2.04,1.02-3.06,3.05
	l-12.73,25.46c-3.06-3.05-9.93-8.15-20.62-15.27c-10.69-7.13-16.72-10.69-18.08-10.69c-1.02,0-2.04,1.02-3.05,3.06l-16.29,32.59
	C197.98,622.98,197.98,623.83,198.66,624.17z"/>
<path d="M149.55,838.67v3.44h-0.49c-2.46,0-4.09,0.82-4.09,3.28l0.16,43.31h5.81c7.61,0,15.31-2.95,18.58-9.82l0.08-0.33l3.27,0.08
	l-3.6,13.43H129.9v-3.36h0.49c2.62,0,4.18-0.82,4.18-3.36v-39.95c0-2.46-1.56-3.28-4.18-3.28h-0.49v-3.44H149.55z"/>
<path d="M173.04,842.11v-3.44h39.54l3.52,17.03l-3.19,0.08l-0.08-0.33c-0.82-1.64-1.39-3.44-2.21-5.16
	c-2.62-5.4-6.39-8.19-12.69-8.19h-9.82v22.27c2.7,0,5.57,0,8.35-0.08c5.73-0.08,9.33-1.31,9.41-7.04v-0.49h3.36v17.27h-3.44v-0.49
	c0-5.4-4.18-5.57-9.33-5.65l-8.35-0.08v20.88h13.67c5.65,0,8.76-3.27,10.97-8.02c0.82-1.8,1.39-3.6,2.21-5.4l0.08-0.33l3.27,0.08
	l-3.6,17.03h-41.67v-3.36h0.49c2.62,0.08,4.18-0.82,4.18-3.36v-39.95c0-2.46-1.56-3.36-4.18-3.28H173.04z"/>
<path d="M219.13,866.51c0-16.54,9.41-28.65,27.59-28.65c5.32,0,11.38,1.06,15.56,4.75c0.08,0.08,0.49,0.41,0.9,0.74l0.57,0.57
	c0.08,0.08,0.08,0.16,0.16,0.25c0.08,0.16,0.16,0.25,0.16,0.33l1.31,10.89h-3.36l-0.08-0.33c-0.33-1.31-1.23-2.7-1.88-4.01
	c-3.03-4.99-7.7-9.66-13.92-9.66c-11.54,0-16.13,14.65-16.13,24.07c0,11.38,4.18,23.91,17.93,23.91c2.21,0,5.16-0.33,7.45-1.06
	v-14.41c0-2.37-1.88-3.28-4.42-3.19h-0.49v-3.44h19.98v3.44h-0.49c-2.54-0.08-4.18,0.9-4.18,3.27v12.28l-0.16,0.16
	c-5.24,5.08-12.12,6.8-19.32,6.8C228.79,893.2,219.13,882.88,219.13,866.51z"/>
<path d="M267.92,888.69c4.01-0.08,6.63-2.54,8.11-6.06l18.99-43.96h3.6l19.65,46.26c1.15,2.78,2.62,3.77,5.57,3.77h0.49v3.36h-21.61
	v-3.36h0.49c0.9,0,1.96-0.08,2.87-0.33c0.82-0.33,1.31-0.82,1.31-1.72c0-0.41-0.08-0.98-0.33-1.39l-5.65-13.34h-16.54l-4.58,11.05
	c-0.25,0.57-0.41,1.47-0.41,2.21c0,2.87,2.87,3.36,5.08,3.52h2.95v3.36h-20.47v-3.36H267.92z M299.93,868.47l-6.88-16.29
	l-6.88,16.29H299.93z"/>
<path d="M347.33,837.77c5.89,0,12.2,1.56,16.78,5.4c0.08,0.16,0.57,0.57,1.06,1.06l0.65,0.66c0.08,0.08,0.16,0.25,0.25,0.33
	c0.08,0.16,0.16,0.25,0.16,0.33c0.57,3.19,0.9,6.47,1.31,9.58l0.08,0.57h-3.36l-0.08-0.25c-3.68-6.96-8.51-14.16-17.36-14.16
	c-11.05,0-14.98,16.05-14.98,24.72c0,8.76,3.85,23.17,14.82,23.17c9.74,0,14.9-9.01,18.01-16.87l0.16-0.33h3.36l-0.08,0.57
	c-0.41,3.68-0.74,7.45-1.23,11.22c0,0.25-0.16,0.49-0.33,0.66c-0.16,0.25-0.33,0.49-0.57,0.74c-0.41,0.49-0.82,0.98-0.98,1.23
	c-4.58,4.58-11.95,6.63-18.34,6.63c-17.77,0-25.79-11.71-25.79-27.51C320.89,849.89,330.14,837.77,347.33,837.77z"/>
<path d="M368.29,838.67h24.56v3.44h-0.49c-0.74,0-2.13,0.08-3.36,0.49c-1.23,0.33-1.88,0.82-1.88,1.56c0,0.41,0.16,0.82,0.49,1.23
	l13.18,18.09l10.72-15.72c0.65-0.98,1.15-1.96,1.15-2.95c0-2.37-3.27-2.7-4.99-2.7h-0.49v-3.44h17.36v3.44h-0.49
	c-2.7,0-4.83,1.56-6.47,3.77l-14.82,20.55v18.91c0,2.54,1.56,3.36,4.18,3.36h0.49v3.36h-19.73v-3.36h0.49
	c2.62,0,4.18-0.82,4.18-3.36v-15.8l-17.11-23.66c-1.56-2.21-3.68-3.77-6.47-3.77h-0.49V838.67z"/>
<path d="M465.06,837.77c16.37,0,23.17,13.18,23.17,27.1c0,13.75-6.79,28-23.33,28s-23.09-14.08-23.09-27.75
	C441.81,851.12,448.52,837.77,465.06,837.77z M464.98,889.51c10.89,0,12.36-16.62,12.36-24.4c0-7.94-1.47-23.99-12.28-23.99
	c-10.97,0-12.36,16.05-12.36,24.07C452.7,872.97,454.17,889.51,464.98,889.51z"/>
<path d="M489.13,888.69h0.49c2.62,0,4.18-0.82,4.18-3.36v-39.95c0-2.46-1.56-3.28-4.18-3.28h-0.49v-3.44h39.71l3.52,17.03
	l-3.19,0.08l-0.08-0.33c-0.74-1.47-1.31-3.19-2.05-4.75c-2.21-5.08-5.32-8.6-11.22-8.6h-11.63v22.27l8.35-0.08
	c5.73-0.08,9.33-1.31,9.41-7.04v-0.49h3.36v17.27h-3.44v-0.49c0-5.4-4.18-5.65-9.33-5.65l-8.35-0.08v17.52
	c0,2.54,1.56,3.36,4.09,3.36h0.49v3.36h-19.65V888.69z"/>
<path class="st0" d="M551.59,838.67h43.55l3.77,17.03l-3.27,0.08l-0.08-0.33c-3.36-7.12-8.84-13.1-17.44-13.34v43.23
	c0,2.46,1.64,3.44,4.18,3.36h0.49v3.36h-19.65v-3.36h0.49c2.46,0.08,4.09-0.9,4.09-3.36v-43.23c-8.1,0.25-13.26,6.63-16.37,13.34
	l-0.08,0.33l-3.27-0.08L551.59,838.67z"/>
<path class="st0" d="M599.73,888.69c2.62,0,4.18-0.82,4.18-3.36v-39.95c0-2.46-1.56-3.28-4.18-3.28h-0.49v-3.44h0.49
	c6.39,0,12.85-0.08,19.24-0.08c3.6,0,7.61,0.08,11.22,0.98c6.55,1.8,10.32,7.12,10.32,13.51c0,7.61-5.08,12.2-11.71,13.67
	c7.78,1.31,12.94,5.65,18.91,11.22c3.11-0.25,6.47-3.52,7.53-6.22l13.59-33.07h3.27l14.57,35.37c0.74,1.88,1.72,3.85,3.77,3.77h0.49
	v3.36h-16.7v-3.36h0.49c1.23,0.08,1.88-0.25,1.88-1.15c0-0.82-0.57-2.7-1.31-4.58c-0.74-1.8-1.56-3.6-1.96-4.58h-12.12
	c-0.41,0.98-0.9,2.21-1.39,3.44c-0.57,1.39-0.9,2.7-0.9,3.6c0,2.37,1.8,3.27,4.18,3.27h0.49v3.36h-11.95
	c4.91,3.85,10.48,6.88,16.95,6.88c4.83,0,10.64-1.39,12.94-5.57l0.16-0.33l3.03,1.23l-0.25,0.41c-3.68,8.11-13.67,10.72-21.94,10.72
	c-9.99,0-17.77-4.26-24.48-10.97c-2.29-2.29-5.4-5.73-8.68-8.92c-3.19-3.11-6.63-5.81-9.74-6.55c-1.39-0.41-2.62-0.57-4.09-0.57
	c-0.41,0-0.82,0.08-1.23,0.08v17.77c0,2.46,0.82,3.44,3.28,3.36h0.49v3.36h-18.83v-3.36H599.73z M614.3,841.95v22.27
	c1.39,0,3.03,0,4.75-0.08c1.88-0.16,3.68-0.41,4.99-0.9c4.01-1.64,5.57-6.06,5.57-10.15c0-4.01-1.56-8.6-5.57-10.15
	c-1.31-0.49-3.11-0.74-4.99-0.9C617.33,841.95,615.69,841.95,614.3,841.95z M671.93,864.13l-4.75-11.63l-4.58,11.63H671.93z"/>
<path class="st0" d="M690.11,842.11v-3.44h14.57c2.78,0,5.65-0.08,8.6,0c2.95,0.08,5.89,0.25,8.6,0.82
	c13.59,2.78,17.68,14.65,17.68,26.36c0,11.71-4.67,23.5-18.26,25.54c-5.16,0.74-11.38,0.65-16.62,0.65h-14.57v-3.36h0.49
	c2.54,0.08,4.18-0.9,4.18-3.36v-39.95c0-2.37-1.64-3.36-4.18-3.28H690.11z M705.17,842.03v46.66c4.67,0,9.58-0.33,13.75-2.46
	c7.61-3.93,9.74-13.51,9.74-21.37c0-7.2-2.46-19.16-10.32-21.7C715.08,842.19,708.93,842.03,705.17,842.03z"/>
<path class="st0" d="M760.27,838.67v3.44h-0.49c-2.54,0-4.09,0.82-4.09,3.28v39.95c0,2.54,1.56,3.36,4.09,3.36h0.49v3.36h-19.65
	v-3.36h0.49c2.62,0,4.18-0.82,4.18-3.36v-39.95c0-2.46-1.56-3.28-4.18-3.28h-0.49v-3.44H760.27z"/>
<path class="st0" d="M764.93,838.67h43.55l3.77,17.03l-3.28,0.08l-0.08-0.33c-3.36-7.12-8.84-13.1-17.44-13.34v43.23
	c0,2.46,1.64,3.44,4.18,3.36h0.49v3.36h-19.65v-3.36h0.49c2.46,0.08,4.09-0.9,4.09-3.36v-43.23c-8.1,0.25-13.26,6.63-16.37,13.34
	l-0.08,0.33l-3.27-0.08L764.93,838.67z"/>
<path class="st0" d="M833.21,838.67v3.44h-0.49c-2.54,0-4.09,0.82-4.09,3.28v39.95c0,2.54,1.56,3.36,4.09,3.36h0.49v3.36h-19.65
	v-3.36h0.49c2.62,0,4.18-0.82,4.18-3.36v-39.95c0-2.46-1.56-3.28-4.18-3.28h-0.49v-3.44H833.21z"/>
<path class="st0" d="M858.91,837.77c16.37,0,23.17,13.18,23.17,27.1c0,13.75-6.79,28-23.33,28s-23.09-14.08-23.09-27.75
	C835.66,851.12,842.38,837.77,858.91,837.77z M858.83,889.51c10.89,0,12.36-16.62,12.36-24.4c0-7.94-1.47-23.99-12.28-23.99
	c-10.97,0-12.36,16.05-12.36,24.07C846.55,872.97,848.03,889.51,858.83,889.51z"/>
<path class="st0" d="M883.39,888.69h0.49c4.01,0,6.06-1.15,6.06-5.16v-39.05c-1.39-1.31-3.36-2.37-5.4-2.37h-0.49v-3.44h14.82
	l25.71,35.45v-26.85c0-4.09-3.68-5.16-7.7-5.16h-0.49v-3.44h18.42v3.44h-0.49c-4.01,0-6.39,1.06-6.39,5.16v44.78h-3.11l-31.44-43.14
	v34.63c0,4.09,3.68,5.16,7.7,5.16h0.41v3.36h-18.09V888.69z"/>
</svg>
